<svg width="67" height="27" viewBox="0 0 67 27" fill="none" xmlns="http://www.w3.org/2000/svg">
  <g clip-path="url(#clip0_467_79)">
    <path fill-rule="evenodd" clip-rule="evenodd"
      d="M6.84325 17.0586L5.72659 16.6433V3.37855H6.47092C10.0787 3.37855 11.9397 5.34461 11.9397 10.0801C11.9397 14.6494 10.6227 16.9757 6.84325 17.0586ZM6.70016 2.02161H0.200362L0 2.90767L1.83245 3.54456V16.7817L0 17.4185L0.200362 18.3048H7.10088C11.9113 18.3048 16.0916 15.8124 16.0916 9.91378C16.0916 4.07067 11.9684 2.02161 6.70016 2.02161ZM23.8222 17.3078C21.9039 17.3078 21.3885 15.4799 21.3885 12.2677C21.3885 9.05549 21.9039 7.22767 23.8222 7.22767C25.7406 7.22767 26.256 9.05549 26.256 12.2677C26.256 15.4799 25.7408 17.3078 23.8222 17.3078ZM23.8222 5.95373C19.9569 5.95373 17.4085 8.08596 17.4085 12.2677C17.4085 16.4493 19.9569 18.5817 23.8222 18.5817C27.6876 18.5817 30.236 16.4493 30.236 12.2677C30.236 8.08611 27.6876 5.95373 23.8222 5.95373ZM31.5817 17.5293V18.3046H37.8236L38.1957 17.5016L36.5064 16.9754V9.49829C37.022 9.02772 37.795 8.55684 38.7684 8.55684C39.828 8.55684 40.8014 9.16627 40.8014 10.9662V17.0031L39.6273 17.5293V18.3046H45.8982L46.2704 17.5016L44.581 16.9754V10.1907C44.581 7.36606 42.9775 5.95373 40.8872 5.95373C38.969 5.95373 37.5372 6.78441 36.5065 8.36306H36.392L36.478 5.95373H35.8766L31.553 7.31067V7.61523L32.7557 9.44306V17.0308L31.5816 17.5293H31.5817ZM49.964 4.48617C51.2524 4.48617 52.2831 3.51679 52.2831 2.27078C52.2831 0.99684 51.2524 0 49.964 0C48.6468 0 47.6445 0.99684 47.6445 2.27078C47.6445 3.51679 48.6468 4.48617 49.964 4.48617ZM51.8535 5.95373H51.2237L46.9 7.31067V7.61539L48.1028 9.44306V17.0308L46.9287 17.5293V18.3048H53.1709L53.5429 17.5017L51.8535 16.9756V5.95373ZM60.5863 17.3078C58.6681 17.3078 58.1527 15.4799 58.1527 12.2677C58.1527 9.05549 58.6679 7.22767 60.5863 7.22767C62.5046 7.22767 63.02 9.05549 63.02 12.2677C63.02 15.4799 62.5046 17.3078 60.5863 17.3078ZM60.5863 5.95373C56.7211 5.95373 54.1727 8.08596 54.1727 12.2677C54.1727 16.4493 56.7211 18.5817 60.5863 18.5817C64.4516 18.5817 67 16.4493 67 12.2677C67 8.08611 64.4516 5.95373 60.5863 5.95373Z"
      fill="black" />
    <path fill-rule="evenodd" clip-rule="evenodd"
      d="M35.0439 22.623C36.3437 25.178 39.0611 26.9367 42.2039 26.9367C45.3468 26.9367 48.064 25.178 49.3638 22.623C47.132 23.417 44.7203 23.851 42.2039 23.851C39.6872 23.851 37.2757 23.417 35.0439 22.623Z"
      fill="#E66D45" />
  </g>
  <defs>
    <clipPath id="clip0_467_79">
      <rect width="67" height="27" fill="white" />
    </clipPath>
  </defs>
</svg>