<svg width="212" height="56" viewBox="0 0 212 56" fill="none" xmlns="http://www.w3.org/2000/svg">
  <g id="Frame" clip-path="url(#clip0_466_12)">
    <g id="a">
      <g id="Group">
        <path id="Vector"
          d="M93.0039 19.907H100.523L101.823 39.5812H101.936L103.237 19.907H110.304L106.629 51.3404H96.7352L93.0039 19.907Z"
          fill="white" />
        <path id="Vector_2"
          d="M111.265 43.369V27.8785C111.265 22.5642 114.374 19.3417 119.632 19.3417C124.89 19.3417 127.829 22.5642 127.829 27.8785V36.924H118.727V44.4997C118.727 45.6869 118.953 46.0827 119.632 46.0827C120.31 46.0827 120.536 45.6869 120.536 44.4997V39.9769H127.829V43.369C127.829 48.6833 124.663 51.9058 119.632 51.9058C114.6 51.9058 111.265 48.6833 111.265 43.369ZM120.536 31.4967V26.7478C120.536 25.5605 120.31 25.1648 119.632 25.1648C118.953 25.1648 118.727 25.5605 118.727 26.7478V31.4967H120.536Z"
          fill="white" />
        <path id="Vector_3"
          d="M129.978 19.907H137.044V22.8469H137.157C138.005 20.5289 139.588 19.3417 141.85 19.3417C145.016 19.3417 146.599 21.7727 146.599 26.1259V51.3404H139.136V26.2389C139.136 25.6736 139.023 25.1648 138.458 25.1648C137.779 25.1648 137.44 25.7867 137.44 27.6523V51.3404H129.978V19.907Z"
          fill="white" />
        <path id="Vector_4"
          d="M148.465 43.5386V40.3727H155.645V44.4997C155.645 45.6869 155.927 46.0827 156.606 46.0827C157.228 46.0827 157.51 45.6869 157.51 44.4997V41.0511C157.51 40.09 157.228 39.6377 156.097 38.9593L153.101 37.2067C149.765 35.2845 148.465 33.5319 148.465 29.518V27.4827C148.465 22.4511 151.461 19.3417 156.606 19.3417C161.751 19.3417 164.747 22.4511 164.747 27.4827V29.631H157.51V26.6347C157.51 25.6171 157.341 25.1648 156.719 25.1648C156.097 25.1648 155.927 25.6171 155.927 26.6347V28.9526C155.927 29.9137 156.21 30.4225 157.284 31.0444L160.281 32.797C163.673 34.7757 164.973 36.5283 164.973 40.5423V43.5386C164.973 48.7398 161.864 51.9058 156.719 51.9058C151.574 51.9058 148.465 48.7398 148.465 43.5386Z"
          fill="white" />
        <path id="Vector_5"
          d="M166.779 10.6353H174.242V34.2669H174.355L176.729 19.907H184.079L181.365 34.38L184.531 51.3404H176.842L174.355 35.5672H174.242V51.3404H166.779V10.6353Z"
          fill="white" />
        <path id="Vector_6"
          d="M185.043 43.4821V27.7654C185.043 22.5642 188.265 19.3417 193.41 19.3417C198.555 19.3417 201.777 22.5642 201.777 27.7654V43.4821C201.777 48.6833 198.611 51.9058 193.41 51.9058C188.209 51.9058 185.043 48.6833 185.043 43.4821ZM194.315 44.4997V26.7478C194.315 25.5605 194.089 25.1648 193.41 25.1648C192.732 25.1648 192.506 25.5605 192.506 26.7478V44.4997C192.506 45.6869 192.732 46.0827 193.41 46.0827C194.089 46.0827 194.315 45.6869 194.315 44.4997Z"
          fill="white" />
        <path id="Vector_7"
          d="M203.866 21.49V12.3314H211.725V21.49L209.859 41.786H205.732L203.866 21.49ZM203.866 43.8778H211.725V51.3404H203.866V43.8778Z"
          fill="white" />
      </g>
      <path id="Vector_8"
        d="M0 42.7245V36.5057H7.68874V43.4595C7.68874 44.6467 7.97141 45.099 8.70637 45.099C9.38478 45.099 9.61092 44.6467 9.61092 43.4595V37.806C9.61092 36.6753 9.15864 35.7707 8.08448 35.0923L4.862 32.8874C1.46991 30.626 0 28.082 0 24.068V20.2236C0 14.8528 3.22249 11.5173 8.42369 11.5173C13.6249 11.5173 17.0735 14.8528 17.0735 20.2236V25.0291H9.38478V19.4322C9.38478 18.4711 9.15864 18.0753 8.64983 18.0753C8.02795 18.0753 7.85834 18.4711 7.85834 19.4322V23.8419C7.85834 24.9726 8.31062 25.8771 9.38478 26.5555L12.6638 28.7604C15.9994 31.0218 17.4693 33.5659 17.4693 37.5798V42.7245C17.4693 48.2649 14.3033 51.657 8.7629 51.657C3.22249 51.657 0 48.2649 0 42.7245Z"
        fill="white" />
    </g>
    <g id="b">
      <g id="Group_2">
        <path id="Vector_9"
          d="M79.2306 54.2486C77.028 54.287 74.5947 54.2712 71.569 54.2011C69.7983 54.2011 67.996 54.1807 66.4447 54.1626C63.8893 54.131 61.248 54.0993 58.6542 54.1445C56.7116 54.1784 54.76 54.3073 52.8718 54.4295C50.9699 54.5538 49.0161 54.6827 47.0509 54.7167C46.2368 54.7302 45.4883 54.728 44.7601 54.7099C44.3893 54.7008 44.0342 54.6918 43.6905 54.685H43.6611C41.7955 54.8456 40.3663 54.927 39.0253 54.9518C37.1687 54.9835 35.3324 54.841 33.5549 54.7031C32.4627 54.6194 31.3343 54.5312 30.2239 54.486C29.5455 54.4589 28.7133 54.3526 27.8314 54.2418C26.5537 54.0812 25.1132 53.898 23.8603 53.9206C22.9513 53.9365 22.2615 54.0563 21.7505 54.2893C21.6985 54.3119 21.6419 54.3254 21.5854 54.3277L21.2756 54.3322C21.1376 54.3345 21.0087 54.2666 20.9318 54.1513L20.8436 54.0179L20.6469 54.0337C20.6175 54.0337 20.5926 54.0337 20.57 54.0269C20.4298 53.9975 20.3167 53.9026 20.2693 53.7691C19.9187 52.7922 20.0997 51.7791 20.2579 50.8836C20.3032 50.6258 20.3552 50.3228 20.3914 50.0265V49.9971C20.3982 49.4906 20.4117 48.9772 20.423 48.4684C20.4321 48.1224 20.4411 47.7832 20.4456 47.4553L20.4321 47.0257C20.4185 46.5983 20.4027 46.1731 20.3982 45.757L20.3936 45.3975C20.2014 43.2718 20.1404 40.9651 20.2014 38.1158L20.1698 37.2157C20.0544 33.9299 19.9346 30.5582 19.9346 27.2181C19.9346 25.2778 20.068 23.3331 20.1969 21.4516C20.2715 20.3548 20.3484 19.2264 20.4004 18.1092C20.4343 17.3585 20.3959 16.5692 20.3574 15.7348C20.3032 14.5702 20.2444 13.3671 20.3982 12.2296V11.9786L20.267 11.5806C20.2286 11.4653 20.2421 11.3364 20.31 11.2323C20.3778 11.1283 20.4841 11.056 20.6062 11.0379C22.0693 10.8275 23.641 10.71 25.4094 10.6806C28.1434 10.6331 30.9385 10.8004 33.6431 10.9632L34.17 10.9949C36.9425 10.9768 39.6765 10.9723 42.241 10.9678C46.9582 10.961 51.8338 10.9519 56.6415 10.8705H56.7116L56.7727 10.8343C57.0757 10.6647 57.4036 10.4929 57.8084 10.2961L57.8514 10.2758L57.8853 10.2418C58.9119 9.20839 60.4316 8.61817 61.7726 8.09805C62.2181 7.92392 62.641 7.7611 63.0322 7.58697C63.7106 7.28621 64.3936 6.96057 65.0539 6.64623C66.1846 6.10802 67.3402 5.5585 68.498 5.10849L70.1669 4.46173C71.0556 4.03885 72.1728 3.62727 73.1587 3.26093C75.436 2.31341 77.2066 1.46538 78.7421 0.585701L78.7715 0.569871L78.7941 0.547257C78.8213 0.522382 78.8529 0.499768 78.8891 0.481677L79.1876 0.327902L79.208 0.318857C79.2328 0.30755 79.26 0.296243 79.2916 0.289458C79.3369 0.280413 79.3572 0.280413 79.3776 0.278152H79.416C79.4477 0.278152 79.4793 0.287197 79.5087 0.296243L79.5404 0.305288C79.8909 0.427403 80.1804 0.597008 80.4201 0.823147L80.4608 0.861591L80.5128 0.879682C82.3061 1.5287 84.0496 2.46718 85.558 3.59109L85.5715 3.6024L85.5873 3.61144C86.0509 3.86924 86.4602 4.1587 86.8379 4.49565C87.3354 4.93888 87.8397 5.5178 88.3372 6.21657C89.5177 7.66612 90.2775 9.20161 90.6076 10.7936L90.6303 10.9067L90.7275 10.9678C90.8835 11.065 90.9469 11.2504 90.8881 11.4313L90.7818 11.7525L90.8134 11.8407C91.2996 13.1726 91.035 14.3033 90.7795 15.3956C90.7275 15.6194 90.6755 15.8478 90.6257 16.0785L90.6212 16.0966V16.1147C90.5782 16.7094 90.5353 17.2997 90.4901 17.8854L90.4584 18.2992V18.3173C90.5669 20.3593 90.7365 22.4466 90.8881 24.2874C91.2318 28.5094 91.5891 32.8761 91.3743 37.2361C91.32 38.351 91.1933 39.4817 91.069 40.5762C91.0283 40.938 90.9876 41.2976 90.9514 41.6571V41.6933C90.9943 43.5295 91.0825 45.1397 91.216 46.6164L91.2227 46.6955C91.3743 48.3712 91.519 49.9542 91.0599 51.4806L91.0463 51.5236V51.5665C91.0577 51.9442 91.0622 52.3264 91.0622 52.7085C91.0622 52.7719 91.0463 52.8352 91.0192 52.8917L90.8654 53.2038C90.7953 53.3463 90.6551 53.4345 90.4991 53.4367C88.3214 53.4752 86.1143 53.5905 84.2396 53.7013H84.2124C82.444 53.9862 80.8497 54.2237 79.2283 54.2531L79.2306 54.2486Z"
          fill="#E4FF03" />
        <path id="Vector_10"
          d="M91.6522 37.2429C91.8671 32.8648 91.5098 28.489 91.1638 24.258C91.0032 22.3019 90.8404 20.2824 90.7364 18.2947C90.7454 18.1635 90.7567 18.0301 90.7658 17.8989C90.811 17.3132 90.8562 16.7207 90.8969 16.126C90.9444 15.8976 90.9964 15.6737 91.0485 15.4521C91.313 14.3191 91.5867 13.15 91.0733 11.7412L91.1502 11.5105C91.2497 11.2097 91.1389 10.8909 90.8766 10.7303C90.5374 9.09532 89.7527 7.51461 88.5609 6.05149C88.1335 5.44996 87.6111 4.80998 87.0209 4.2876C86.6048 3.91673 86.1706 3.62049 85.7229 3.36948C84.1964 2.23199 82.4258 1.27995 80.6076 0.621883C80.3724 0.400267 80.0603 0.189957 79.6035 0.0361823C79.6013 0.0361823 79.5968 0.0361823 79.5945 0.0361823C79.5425 0.0203525 79.4905 0.00904559 79.4362 0.0045228C79.4249 0.0045228 79.4113 0.0045228 79.4 0.0045228C79.357 0.0045228 79.3141 0.00678419 79.2711 0.0135684C79.2575 0.0158298 79.2417 0.0180912 79.2281 0.0226139C79.1807 0.0339209 79.1332 0.0497507 79.0857 0.0723646C79.0812 0.0723646 79.0766 0.074626 79.0721 0.0768874H79.0676L78.7578 0.237446C78.7012 0.266844 78.6492 0.305288 78.6017 0.345993C76.8605 1.34101 74.979 2.2026 73.0591 3.00087C71.9555 3.41018 70.913 3.79914 70.0627 4.20167C69.6738 4.35318 69.2848 4.50243 68.8981 4.65395L68.3938 4.84843C67.2201 5.30297 66.0555 5.85701 64.9294 6.39296C64.269 6.70729 63.5838 7.03293 62.9145 7.33143C62.53 7.5033 62.1117 7.66612 61.6662 7.83799C60.2822 8.3762 58.749 8.97094 57.6816 10.0474C57.3265 10.2215 56.976 10.4001 56.6323 10.5946C51.8381 10.676 46.9581 10.6851 42.2363 10.6919C39.5882 10.6964 36.8903 10.7009 34.1834 10.719C34.0071 10.7077 33.8352 10.6986 33.6565 10.6873C29.3034 10.4273 24.8032 10.1559 20.5631 10.7665C20.3595 10.7959 20.1786 10.9135 20.0701 11.0899C19.9615 11.2663 19.9344 11.4788 20 11.671L20.1198 12.0283C20.1198 12.0849 20.1198 12.1414 20.1198 12.198C19.9638 13.3445 20.0203 14.5634 20.0769 15.7506C20.1153 16.5805 20.1538 17.363 20.1198 18.1024C20.0701 19.2105 19.9932 20.339 19.9186 21.4312C19.7897 23.3195 19.6562 25.2711 19.6562 27.2226C19.6562 30.5763 19.7761 33.9593 19.8914 37.2293C19.9027 37.521 19.9118 37.8195 19.9231 38.1135C19.8711 40.5422 19.8937 42.9891 20.1153 45.4042C20.1153 45.5241 20.1198 45.6439 20.1198 45.7638C20.1244 46.1822 20.1379 46.6096 20.1538 47.0415C20.1583 47.1794 20.1628 47.3196 20.1673 47.4576C20.1628 47.7855 20.1538 48.1224 20.1447 48.4684C20.1311 48.9795 20.1176 49.4951 20.1131 50.0039C20.0814 50.2753 20.0339 50.5512 19.9819 50.8429C19.8168 51.7723 19.6291 52.8261 20.0045 53.8709C20.0837 54.0925 20.2714 54.2553 20.502 54.3006C20.5653 54.3141 20.6287 54.3141 20.6942 54.3096C20.8186 54.4996 21.0334 54.6172 21.2664 54.6126L21.5762 54.6081C21.6712 54.6081 21.7639 54.5855 21.8521 54.5448C23.1795 53.9387 25.7304 54.2599 27.7769 54.5177C28.6656 54.6307 29.5069 54.737 30.1966 54.7641C31.3024 54.8094 32.4286 54.8976 33.5186 54.9812C35.3006 55.1192 37.1436 55.2617 38.9912 55.23H39.016C40.5809 55.2006 42.1368 55.0943 43.67 54.9632C44.0137 54.9699 44.3665 54.9767 44.7374 54.988C45.5085 55.0084 46.2751 55.0084 47.0395 54.9948C49.0137 54.9609 50.9675 54.832 52.8739 54.7076C54.7599 54.5832 56.7114 54.4566 58.6449 54.4227C61.2297 54.3775 63.8733 54.4091 66.4287 54.4408C68.1089 54.4611 69.8275 54.4792 71.5507 54.4792C74.0948 54.5403 76.666 54.5719 79.2214 54.5267C80.9265 54.4973 82.6112 54.2372 84.2462 53.9749C86.3086 53.8551 88.4071 53.7488 90.4944 53.7103C90.7545 53.7058 90.9897 53.5543 91.1073 53.3214L91.261 53.0093C91.3085 52.9143 91.3334 52.808 91.3334 52.7018C91.3334 52.3173 91.3266 51.9351 91.3176 51.553C91.7902 49.979 91.6455 48.3576 91.4917 46.6638L91.4849 46.5824C91.3379 44.9655 91.261 43.3238 91.2203 41.6775C91.2588 41.3179 91.2995 40.9583 91.3379 40.601C91.4623 39.502 91.5889 38.3645 91.6455 37.2406L91.6522 37.2429ZM82.3783 52.7153C79.7437 52.8759 77.0188 53.0387 74.3187 53.0862C73.4164 53.102 72.5073 53.1065 71.6005 53.1065C70.1351 53.0726 68.6787 53.0274 67.2382 52.9844C64.4273 52.9008 61.5689 52.8148 58.697 52.799C59.9 52.2201 61.0963 51.6954 62.3016 51.1979C62.4848 51.1323 62.6657 51.0645 62.8489 50.9989C63.6788 50.6982 64.4658 50.4155 65.2075 50.0989C65.7005 49.8886 66.2003 49.6805 66.7023 49.4702C66.7973 49.434 66.89 49.3979 66.985 49.3617C68.0817 48.9433 69.2147 48.5114 70.3454 48.0636C71.7181 47.5186 73.0952 46.8312 74.4272 46.1641C76.363 45.1962 78.3643 44.1944 80.3204 43.663C80.3249 43.663 80.3294 43.6584 80.3317 43.6584C81.537 44.1492 82.9595 44.8932 84.3253 45.7819C84.7844 46.1528 85.205 46.5146 85.5668 46.8244L85.5962 46.8493C87.1114 48.1518 88.5994 49.6511 89.461 51.7633C89.4157 51.8402 89.3795 51.9216 89.366 52.0098C87.6518 52.0437 85.9422 52.3173 84.2801 52.5819C84.2326 52.5887 84.1829 52.5977 84.1354 52.6045C83.5474 52.6384 82.9617 52.6746 82.3805 52.7085L82.3783 52.7153ZM42.5144 53.5701C39.8121 53.5249 37.8605 53.491 34.8619 53.0138C34.5611 52.9663 34.2807 52.9505 34.0161 52.955C33.5548 52.9641 33.1342 53.0319 32.7248 53.0998C31.7818 53.2558 30.8909 53.4028 29.3486 52.8352C28.7651 52.6203 27.6164 52.6905 26.1736 52.8058C25.805 52.8352 25.4839 52.8601 25.303 52.8646H25.2984C24.9208 52.8714 24.4436 52.7606 23.9393 52.6452C23.2179 52.4801 22.3903 52.2924 21.6078 52.4146C21.5106 51.7045 21.4857 50.8859 21.4902 50.0514C21.4925 50.0243 21.497 49.9971 21.5015 49.97C21.583 49.131 21.5694 48.2694 21.5445 47.4214C21.5558 46.6729 21.5513 45.9719 21.4948 45.359C21.4948 45.3454 21.4948 45.3296 21.4925 45.3161C21.4654 42.8964 21.3862 40.4586 21.3025 38.0773C21.3365 36.5305 21.402 34.986 21.4654 33.4641C21.5603 31.2095 21.6598 28.8757 21.6531 26.6008C21.6463 24.2353 21.6101 21.8383 21.5762 19.5203C21.54 17.1391 21.5038 14.681 21.4993 12.2771C22.7317 12.017 24.2175 12.0713 25.658 12.1233C26.3477 12.1482 26.999 12.1708 27.6164 12.1595C29.7805 12.1211 31.9582 12.1007 34.1337 12.0871C35.5245 12.1708 36.9446 12.25 38.3127 12.2952C40.6284 12.3698 42.9803 12.3042 45.2552 12.2432C47.5505 12.1799 49.925 12.1143 52.2407 12.1934C52.8965 12.216 53.5613 12.2522 54.2036 12.2861C55.2031 12.3404 56.232 12.3947 57.2791 12.4015C57.2926 13.2812 57.4622 14.2807 57.6409 15.2712C57.5866 19.2422 57.4781 23.2155 57.3695 27.0915C57.365 27.2882 57.3582 27.4872 57.3537 27.684C57.2293 28.6632 57.1275 29.622 57.1095 30.4745C57.0868 31.4854 57.1366 32.4238 57.2044 33.3284C57.1208 36.8177 57.0597 40.3523 57.0597 43.8778C57.0597 45.8316 56.9828 47.6543 56.8313 49.2984C56.8087 49.5471 56.7702 49.8569 56.7318 50.1894C56.6436 50.9198 56.5758 51.5168 56.5532 51.9917C56.5034 52.2472 56.465 52.5163 56.4423 52.8013C54.1855 52.8216 51.9241 52.894 49.6785 53.0568C48.4099 53.1495 47.1412 53.2671 45.9156 53.3824C45.1716 53.4525 44.4185 53.5226 43.6609 53.5882C43.2652 53.5814 42.8853 53.5747 42.5189 53.5679L42.5144 53.5701ZM73.5453 4.27177L73.595 4.25368C75.2956 3.62275 77.1703 2.9285 78.6017 2.06917C78.6176 2.10536 78.6311 2.1438 78.647 2.18224C78.5723 3.57074 78.6945 5.02255 78.8143 6.43366C78.9048 7.50782 78.9997 8.61817 78.9997 9.65162C78.9997 12.6661 78.95 15.1106 78.8392 17.3426C78.604 22.1684 78.3733 28.5297 78.6899 34.9182C78.7465 36.0489 78.7736 37.2293 78.803 38.3691C78.8324 39.5427 78.8618 40.748 78.9206 41.9307C78.9138 41.9443 78.9093 41.9601 78.9048 41.9737C78.8889 42.0099 78.8776 42.0461 78.8686 42.0823C77.4484 42.5074 76.0939 42.9484 74.7348 43.9072C72.1952 45.7005 69.1717 46.9623 66.25 48.1835C66.2364 48.188 66.2251 48.1948 66.2116 48.1993C64.719 48.7692 63.2627 49.3278 61.8199 49.9225C60.5264 50.3929 59.2284 50.8949 58.0638 51.553C58.0638 51.553 58.0615 51.5507 58.0592 51.5484C58.1135 51.3608 58.17 51.1753 58.2288 50.9876C58.4753 50.1984 58.7286 49.382 58.7331 48.326C58.7377 47.4508 58.6902 46.5055 58.6427 45.5919C58.5567 43.8755 58.4663 42.1026 58.6902 40.5875C59.0203 38.3668 58.853 36.5079 58.6766 34.5405C58.6404 34.1244 58.6042 33.7015 58.5703 33.2719C58.6155 31.4221 58.6653 29.5835 58.715 27.7654C58.7738 27.3131 58.8372 26.854 58.8982 26.4018C59.1198 24.8007 59.3505 23.1476 59.3505 21.7546C59.3505 21.3001 59.3528 20.8455 59.3573 20.391C59.3641 19.4796 59.3708 18.5366 59.3505 17.6049C59.3369 16.9514 59.1832 16.1079 59.0226 15.2147C59.0181 15.1898 59.0135 15.1626 59.009 15.1355C59.0271 13.7244 59.0384 12.3155 59.0407 10.909C59.6196 10.6444 60.2053 10.3956 60.7842 10.1491C61.3473 9.90942 61.9307 9.66293 62.4961 9.40513C65.0424 8.24956 67.5458 6.9877 69.9677 5.76655L70.4019 5.5472C70.463 5.51554 70.5308 5.48388 70.5964 5.45448C71.5779 5.0723 72.5638 4.67882 73.543 4.27177H73.5453ZM87.5026 6.94021C87.8192 7.39023 88.1222 7.87869 88.3958 8.38298C88.536 8.64304 88.6853 9.09758 88.8278 9.53629C89.0562 10.2351 89.2778 10.9044 89.6034 11.3771C89.6283 11.5331 89.6509 11.6914 89.6667 11.8497C89.6667 11.8723 89.6713 11.8949 89.6758 11.9175C89.6939 13.2744 89.6283 14.6312 89.5378 15.97C89.4089 16.6077 89.314 17.3132 89.3547 18.1205C89.3569 18.1839 89.3615 18.2472 89.366 18.3082C89.3479 18.5412 89.3298 18.7763 89.314 19.0093C89.1715 20.9495 89.375 22.9283 89.5718 24.8414C89.7097 26.196 89.8544 27.598 89.868 28.9413C89.8861 30.7753 89.868 32.6409 89.8477 34.4455C89.8228 36.8155 89.8002 39.2329 89.859 41.6481C89.7165 43.0072 89.6079 44.3911 89.6645 45.7729C89.6984 46.6028 89.7481 47.4372 89.7956 48.2446C89.8092 48.4752 89.8228 48.7081 89.8363 48.9411C89.6758 48.6742 89.4971 48.4142 89.2868 48.1654C88.2443 46.9465 86.7631 45.7502 85.2073 44.7258C83.8889 43.6562 82.3059 42.5458 80.7252 42.1637C80.7003 42.1275 80.6732 42.0913 80.6415 42.0596C80.5624 41.9805 80.4651 41.9307 80.3656 41.8991C80.6913 40.6056 80.5556 38.8575 80.4425 37.408C80.4109 37.0167 80.3837 36.6504 80.3679 36.3361C80.1734 32.3424 80.2413 28.2335 80.3068 24.2602C80.3385 22.2612 80.3724 20.192 80.3724 18.1658V9.97726C80.3724 9.36669 80.4041 8.69732 80.4403 7.98724C80.5307 6.10802 80.6325 4.01623 80.1418 2.29757C80.3905 2.6707 80.7659 3.09359 81.5596 3.32651L82.0707 3.4735C83.1585 3.78557 84.1399 4.07277 85.0218 4.55671C85.9535 5.26678 86.797 6.06732 87.5049 6.93795L87.5026 6.94021Z"
          fill="#5F1FC2" />
        <g id="Group_3">
          <path id="Vector_11"
            d="M76.1574 28.6216C77.7132 21.2325 75.7624 14.5662 71.8003 13.732C67.8381 12.8978 63.3649 18.2115 61.8092 25.6005C60.2534 32.9895 62.2042 39.6558 66.1663 40.4901C70.1285 41.3243 74.6017 36.0106 76.1574 28.6216Z"
            fill="#5F1FC2" />
          <path id="Vector_12"
            d="M71.6257 27.6673C72.1987 24.9456 71.4803 22.4902 70.0211 22.183C68.5619 21.8757 66.9144 23.833 66.3413 26.5547C65.7683 29.2764 66.4867 31.7319 67.9459 32.0391C69.4051 32.3463 71.0526 30.389 71.6257 27.6673Z"
            fill="#E4FF03" />
          <path id="Vector_13" d="M35.8203 16.2685H43.2829V48.1089H35.8203V16.2685Z" fill="#5F1FC2" />
        </g>
      </g>
    </g>
  </g>
  <defs>
    <clipPath id="clip0_466_12">
      <rect width="211.725" height="55.23" fill="white" />
    </clipPath>
  </defs>
</svg>