<svg width="43" height="33" viewBox="0 0 43 33" fill="none" xmlns="http://www.w3.org/2000/svg">
  <mask id="path-1-outside-1_467_437" maskUnits="userSpaceOnUse" x="0" y="0" width="43" height="33" fill="black">
    <rect fill="white" width="43" height="33" />
    <path
      d="M41.2456 21.8162C41.3657 19.3688 41.166 16.9228 40.9726 14.5576C40.8828 13.4642 40.7918 12.3353 40.7337 11.2242C40.7387 11.1508 40.745 11.0763 40.7501 11.0029C40.7754 10.6755 40.8007 10.3443 40.8234 10.0119C40.85 9.8842 40.879 9.75905 40.9081 9.63517C41.056 9.00184 41.209 8.3483 40.922 7.56075L40.965 7.43181C41.0206 7.26369 40.9587 7.08545 40.812 6.99569C40.6224 6.08174 40.1838 5.19812 39.5176 4.38024C39.2787 4.04399 38.9867 3.68624 38.6567 3.39423C38.4241 3.18692 38.1814 3.02132 37.9311 2.881C37.0778 2.24515 36.088 1.71296 35.0717 1.3451C34.9402 1.22122 34.7658 1.10366 34.5104 1.0177C34.5092 1.0177 34.5066 1.0177 34.5054 1.0177C34.4763 1.00885 34.4472 1.00253 34.4169 1C34.4106 1 34.403 1 34.3967 1C34.3726 1 34.3486 1.00126 34.3246 1.00506C34.317 1.00632 34.3082 1.00758 34.3006 1.01011C34.274 1.01643 34.2475 1.02528 34.2209 1.03792C34.2184 1.03792 34.2159 1.03919 34.2134 1.04045H34.2108L34.0376 1.1302C34.006 1.14664 33.977 1.16813 33.9504 1.19088C32.977 1.74709 31.9253 2.22872 30.8521 2.67495C30.2352 2.90376 29.6524 3.12118 29.1771 3.3462C28.9597 3.43089 28.7423 3.51432 28.5261 3.59902L28.2442 3.70773C27.5881 3.96182 26.9371 4.27153 26.3076 4.57112C25.9385 4.74683 25.5554 4.92887 25.1813 5.09573C24.9664 5.1918 24.7325 5.28282 24.4835 5.37889C23.7098 5.67975 22.8528 6.01221 22.2561 6.61393C22.0576 6.71127 21.8617 6.81113 21.6695 6.91985C18.9896 6.96536 16.2617 6.97041 13.6222 6.9742C12.1419 6.97673 10.6338 6.97926 9.12068 6.98937C9.02207 6.98305 8.926 6.978 8.82614 6.97168C6.39271 6.8263 3.87713 6.67461 1.50691 7.01592C1.39314 7.03235 1.29201 7.09809 1.23133 7.19669C1.17066 7.29529 1.15549 7.41412 1.19215 7.52157L1.25914 7.7213C1.25914 7.7529 1.25914 7.7845 1.25914 7.8161C1.17192 8.45701 1.20352 9.13837 1.23513 9.80203C1.25662 10.266 1.27811 10.7033 1.25914 11.1167C1.23133 11.7361 1.18835 12.3669 1.14664 12.9775C1.07458 14.033 1 15.1239 1 16.2149C1 18.0896 1.067 19.9807 1.13147 21.8086C1.13779 21.9717 1.14285 22.1385 1.14917 22.3029C1.12009 23.6605 1.13273 25.0283 1.25662 26.3784C1.25662 26.4454 1.25914 26.5124 1.25914 26.5794C1.26167 26.8132 1.26926 27.0521 1.27811 27.2936C1.28063 27.3707 1.28316 27.4491 1.28569 27.5262C1.28316 27.7095 1.27811 27.8978 1.27305 28.0912C1.26546 28.3769 1.25788 28.6651 1.25535 28.9496C1.23765 29.1013 1.21111 29.2555 1.18203 29.4186C1.08975 29.9381 0.984831 30.5272 1.19467 31.1112C1.23892 31.2351 1.34384 31.3261 1.47278 31.3514C1.50817 31.359 1.54357 31.359 1.58023 31.3564C1.64976 31.4626 1.76985 31.5284 1.90005 31.5258L2.07323 31.5233C2.12633 31.5233 2.17816 31.5107 2.22746 31.4879C2.96949 31.1491 4.39541 31.3286 5.53944 31.4727C6.03623 31.5359 6.50648 31.5954 6.89204 31.6105C7.51019 31.6358 8.13972 31.6851 8.74903 31.7319C9.74515 31.809 10.7754 31.8886 11.8082 31.8709H11.8221C12.6969 31.8545 13.5666 31.7951 14.4236 31.7218C14.6158 31.7256 14.813 31.7294 15.0203 31.7357C15.4514 31.7471 15.8799 31.7471 16.3072 31.7395C17.4107 31.7205 18.5029 31.6485 19.5686 31.5789C20.6229 31.5094 21.7138 31.4386 22.7946 31.4196C24.2395 31.3944 25.7172 31.4121 27.1457 31.4298C28.0849 31.4411 29.0457 31.4512 30.0089 31.4512C31.431 31.4854 32.8683 31.5031 34.2968 31.4778C35.2499 31.4614 36.1917 31.316 37.1057 31.1693C38.2585 31.1024 39.4316 31.0429 40.5984 31.0214C40.7438 31.0189 40.8752 30.9342 40.941 30.804L41.0269 30.6296C41.0535 30.5765 41.0674 30.5171 41.0674 30.4577C41.0674 30.2428 41.0636 30.0291 41.0585 29.8155C41.3227 28.9357 41.2418 28.0293 41.1559 27.0825L41.1521 27.037C41.0699 26.1331 41.0269 25.2154 41.0042 24.2951C41.0257 24.0941 41.0484 23.8931 41.0699 23.6934C41.1394 23.079 41.2102 22.4432 41.2418 21.8149L41.2456 21.8162ZM36.0615 30.4652C34.5888 30.555 33.0655 30.646 31.5562 30.6726C31.0518 30.6814 30.5436 30.6839 30.0367 30.6839C29.2176 30.665 28.4035 30.6397 27.5982 30.6157C26.0269 30.5689 24.4291 30.5209 22.8237 30.512C23.4962 30.1884 24.1649 29.8951 24.8387 29.617C24.9411 29.5804 25.0422 29.5424 25.1446 29.5058C25.6085 29.3377 26.0484 29.1796 26.4631 29.0027C26.7386 28.8851 27.018 28.7688 27.2986 28.6512C27.3517 28.631 27.4036 28.6108 27.4567 28.5906C28.0698 28.3567 28.7031 28.1152 29.3351 27.865C30.1025 27.5603 30.8723 27.176 31.6169 26.8031C32.6989 26.2621 33.8177 25.7021 34.9112 25.405C34.9137 25.405 34.9162 25.4025 34.9175 25.4025C35.5912 25.6768 36.3864 26.0927 37.1499 26.5895C37.4065 26.7968 37.6416 26.999 37.8439 27.1722L37.8603 27.1861C38.7073 27.9143 39.5391 28.7524 40.0207 29.933C39.9954 29.976 39.9752 30.0215 39.9676 30.0708C39.0094 30.0898 38.0537 30.2428 37.1246 30.3907C37.0981 30.3944 37.0703 30.3995 37.0437 30.4033C36.715 30.4223 36.3876 30.4425 36.0628 30.4614L36.0615 30.4652ZM13.7777 30.9431C12.2671 30.9178 11.1761 30.8988 9.49991 30.6321C9.33178 30.6056 9.17503 30.5967 9.02713 30.5992C8.76925 30.6043 8.53413 30.6422 8.30532 30.6801C7.77819 30.7674 7.28012 30.8495 6.418 30.5322C6.09186 30.4121 5.44968 30.4513 4.64318 30.5158C4.43713 30.5322 4.25762 30.5461 4.1565 30.5487H4.15397C3.94286 30.5525 3.67613 30.4905 3.39423 30.4261C2.99098 30.3338 2.52832 30.2288 2.09093 30.2971C2.03657 29.9002 2.02267 29.4426 2.0252 28.9761C2.02646 28.9609 2.02899 28.9458 2.03152 28.9306C2.07703 28.4616 2.06944 27.98 2.05554 27.5059C2.06186 27.0875 2.05933 26.6957 2.02773 26.3531C2.02773 26.3455 2.02773 26.3366 2.02646 26.3291C2.01129 24.9765 1.96705 23.6137 1.92028 22.2826C1.93924 21.418 1.9759 20.5546 2.01129 19.7038C2.06438 18.4435 2.12001 17.1389 2.11621 15.8672C2.11242 14.545 2.0922 13.205 2.07323 11.9093C2.05301 10.5782 2.03278 9.2041 2.03025 7.86035C2.7192 7.71497 3.54972 7.74531 4.35496 7.77439C4.74052 7.78829 5.10458 7.80093 5.44969 7.79461C6.65944 7.77312 7.87679 7.76175 9.09286 7.75416C9.8703 7.80093 10.6642 7.84518 11.4289 7.87046C12.7234 7.91218 14.0381 7.87552 15.3098 7.84139C16.5929 7.80599 17.9202 7.76933 19.2146 7.81358C19.5812 7.82622 19.9529 7.84644 20.3119 7.86541C20.8706 7.89574 21.4458 7.92608 22.0311 7.92987C22.0387 8.42162 22.1335 8.98035 22.2333 9.53404C22.203 11.7538 22.1423 13.9749 22.0816 16.1416C22.0791 16.2515 22.0753 16.3628 22.0728 16.4728C22.0033 17.0201 21.9464 17.5561 21.9363 18.0327C21.9236 18.5977 21.9514 19.1223 21.9894 19.628C21.9426 21.5785 21.9085 23.5543 21.9085 25.5251C21.9085 26.6173 21.8655 27.6362 21.7808 28.5552C21.7681 28.6942 21.7467 28.8674 21.7252 29.0532C21.6759 29.4615 21.6379 29.7953 21.6253 30.0607C21.5975 30.2036 21.576 30.354 21.5634 30.5133C20.3018 30.5247 19.0377 30.5651 17.7824 30.6561C17.0732 30.7079 16.3641 30.7737 15.6789 30.8382C15.263 30.8773 14.8421 30.9165 14.4186 30.9532C14.1974 30.9494 13.985 30.9456 13.7802 30.9418L13.7777 30.9431ZM31.1239 3.38538L31.1517 3.37527C32.1023 3.02258 33.1502 2.6345 33.9504 2.15414C33.9593 2.17436 33.9669 2.19585 33.9757 2.21734C33.934 2.99351 34.0022 3.80507 34.0692 4.59388C34.1198 5.19433 34.1729 5.81501 34.1729 6.39271C34.1729 8.07778 34.1451 9.44428 34.0832 10.692C33.9517 13.3896 33.8227 16.9455 33.9997 20.5167C34.0313 21.1487 34.0465 21.8086 34.0629 22.4457C34.0794 23.1018 34.0958 23.7755 34.1287 24.4367C34.1249 24.4443 34.1223 24.4531 34.1198 24.4607C34.111 24.4809 34.1046 24.5011 34.0996 24.5214C33.3057 24.759 32.5485 25.0055 31.7888 25.5415C30.3692 26.544 28.6791 27.2493 27.0458 27.932C27.0382 27.9345 27.0319 27.9383 27.0243 27.9408C26.19 28.2594 25.3759 28.5716 24.5694 28.9041C23.8464 29.167 23.1208 29.4476 22.4697 29.8155C22.4697 29.8155 22.4685 29.8142 22.4672 29.813C22.4975 29.708 22.5291 29.6044 22.562 29.4995C22.6998 29.0583 22.8414 28.6019 22.8439 28.0116C22.8464 27.5224 22.8199 26.994 22.7933 26.4833C22.7453 25.5238 22.6947 24.5328 22.8199 23.6858C23.0044 22.4444 22.9109 21.4053 22.8123 20.3056C22.7921 20.073 22.7719 19.8366 22.7529 19.5964C22.7782 18.5623 22.806 17.5346 22.8338 16.5183C22.8667 16.2654 22.9021 16.0088 22.9362 15.756C23.0601 14.861 23.189 13.9369 23.189 13.1583C23.189 12.9042 23.1903 12.6501 23.1928 12.396C23.1966 11.8866 23.2004 11.3594 23.189 10.8386C23.1814 10.4733 23.0955 10.0018 23.0057 9.50243C23.0032 9.48853 23.0007 9.47336 22.9981 9.45819C23.0082 8.66938 23.0146 7.88184 23.0158 7.09556C23.3394 6.94766 23.6668 6.80861 23.9905 6.67082C24.3052 6.53682 24.6314 6.39903 24.9474 6.25492C26.3708 5.60896 27.7702 4.90358 29.124 4.22096L29.3667 4.09834C29.4009 4.08065 29.4388 4.06295 29.4755 4.04652C30.0241 3.83288 30.5752 3.61292 31.1226 3.38538H31.1239ZM38.926 4.87704C39.103 5.1286 39.2724 5.40165 39.4253 5.68354C39.5037 5.82892 39.5871 6.083 39.6668 6.32824C39.7944 6.71885 39.9183 7.09303 40.1003 7.35723C40.1142 7.44445 40.1269 7.53294 40.1357 7.62143C40.1357 7.63407 40.1383 7.64671 40.1408 7.65935C40.1509 8.41782 40.1143 9.17629 40.0637 9.92465C39.9916 10.2811 39.9385 10.6755 39.9613 11.1268C39.9626 11.1622 39.9651 11.1976 39.9676 11.2317C39.9575 11.3619 39.9474 11.4934 39.9385 11.6236C39.8589 12.7082 39.9727 13.8143 40.0826 14.8838C40.1598 15.641 40.2407 16.4247 40.2482 17.1756C40.2584 18.2008 40.2482 19.2437 40.2369 20.2525C40.223 21.5773 40.2103 22.9286 40.2432 24.2787C40.1635 25.0384 40.1029 25.812 40.1345 26.5844C40.1534 27.0483 40.1812 27.5148 40.2078 27.9661C40.2154 28.095 40.223 28.2252 40.2305 28.3554C40.1408 28.2063 40.0409 28.0609 39.9234 27.9218C39.3406 27.2405 38.5126 26.5718 37.6429 25.9991C36.9059 25.4012 36.021 24.7805 35.1374 24.5669C35.1235 24.5467 35.1083 24.5264 35.0907 24.5087C35.0464 24.4645 34.9921 24.4367 34.9364 24.419C35.1185 23.6959 35.0426 22.7187 34.9794 21.9084C34.9617 21.6898 34.9465 21.485 34.9377 21.3093C34.829 19.0768 34.8669 16.7799 34.9036 14.5589C34.9213 13.4414 34.9402 12.2847 34.9402 11.1521V6.57474C34.9402 6.23343 34.9579 5.85926 34.9781 5.46232C35.0287 4.41184 35.0856 3.24254 34.8113 2.28181C34.9503 2.49039 35.1602 2.72678 35.6039 2.85698L35.8896 2.93915C36.4976 3.1136 37.0462 3.27414 37.5392 3.54466C38.0601 3.94159 38.5316 4.38909 38.9272 4.87577L38.926 4.87704Z" />
  </mask>
  <path
    d="M41.2456 21.8162C41.3657 19.3688 41.166 16.9228 40.9726 14.5576C40.8828 13.4642 40.7918 12.3353 40.7337 11.2242C40.7387 11.1508 40.745 11.0763 40.7501 11.0029C40.7754 10.6755 40.8007 10.3443 40.8234 10.0119C40.85 9.8842 40.879 9.75905 40.9081 9.63517C41.056 9.00184 41.209 8.3483 40.922 7.56075L40.965 7.43181C41.0206 7.26369 40.9587 7.08545 40.812 6.99569C40.6224 6.08174 40.1838 5.19812 39.5176 4.38024C39.2787 4.04399 38.9867 3.68624 38.6567 3.39423C38.4241 3.18692 38.1814 3.02132 37.9311 2.881C37.0778 2.24515 36.088 1.71296 35.0717 1.3451C34.9402 1.22122 34.7658 1.10366 34.5104 1.0177C34.5092 1.0177 34.5066 1.0177 34.5054 1.0177C34.4763 1.00885 34.4472 1.00253 34.4169 1C34.4106 1 34.403 1 34.3967 1C34.3726 1 34.3486 1.00126 34.3246 1.00506C34.317 1.00632 34.3082 1.00758 34.3006 1.01011C34.274 1.01643 34.2475 1.02528 34.2209 1.03792C34.2184 1.03792 34.2159 1.03919 34.2134 1.04045H34.2108L34.0376 1.1302C34.006 1.14664 33.977 1.16813 33.9504 1.19088C32.977 1.74709 31.9253 2.22872 30.8521 2.67495C30.2352 2.90376 29.6524 3.12118 29.1771 3.3462C28.9597 3.43089 28.7423 3.51432 28.5261 3.59902L28.2442 3.70773C27.5881 3.96182 26.9371 4.27153 26.3076 4.57112C25.9385 4.74683 25.5554 4.92887 25.1813 5.09573C24.9664 5.1918 24.7325 5.28282 24.4835 5.37889C23.7098 5.67975 22.8528 6.01221 22.2561 6.61393C22.0576 6.71127 21.8617 6.81113 21.6695 6.91985C18.9896 6.96536 16.2617 6.97041 13.6222 6.9742C12.1419 6.97673 10.6338 6.97926 9.12068 6.98937C9.02207 6.98305 8.926 6.978 8.82614 6.97168C6.39271 6.8263 3.87713 6.67461 1.50691 7.01592C1.39314 7.03235 1.29201 7.09809 1.23133 7.19669C1.17066 7.29529 1.15549 7.41412 1.19215 7.52157L1.25914 7.7213C1.25914 7.7529 1.25914 7.7845 1.25914 7.8161C1.17192 8.45701 1.20352 9.13837 1.23513 9.80203C1.25662 10.266 1.27811 10.7033 1.25914 11.1167C1.23133 11.7361 1.18835 12.3669 1.14664 12.9775C1.07458 14.033 1 15.1239 1 16.2149C1 18.0896 1.067 19.9807 1.13147 21.8086C1.13779 21.9717 1.14285 22.1385 1.14917 22.3029C1.12009 23.6605 1.13273 25.0283 1.25662 26.3784C1.25662 26.4454 1.25914 26.5124 1.25914 26.5794C1.26167 26.8132 1.26926 27.0521 1.27811 27.2936C1.28063 27.3707 1.28316 27.4491 1.28569 27.5262C1.28316 27.7095 1.27811 27.8978 1.27305 28.0912C1.26546 28.3769 1.25788 28.6651 1.25535 28.9496C1.23765 29.1013 1.21111 29.2555 1.18203 29.4186C1.08975 29.9381 0.984831 30.5272 1.19467 31.1112C1.23892 31.2351 1.34384 31.3261 1.47278 31.3514C1.50817 31.359 1.54357 31.359 1.58023 31.3564C1.64976 31.4626 1.76985 31.5284 1.90005 31.5258L2.07323 31.5233C2.12633 31.5233 2.17816 31.5107 2.22746 31.4879C2.96949 31.1491 4.39541 31.3286 5.53944 31.4727C6.03623 31.5359 6.50648 31.5954 6.89204 31.6105C7.51019 31.6358 8.13972 31.6851 8.74903 31.7319C9.74515 31.809 10.7754 31.8886 11.8082 31.8709H11.8221C12.6969 31.8545 13.5666 31.7951 14.4236 31.7218C14.6158 31.7256 14.813 31.7294 15.0203 31.7357C15.4514 31.7471 15.8799 31.7471 16.3072 31.7395C17.4107 31.7205 18.5029 31.6485 19.5686 31.5789C20.6229 31.5094 21.7138 31.4386 22.7946 31.4196C24.2395 31.3944 25.7172 31.4121 27.1457 31.4298C28.0849 31.4411 29.0457 31.4512 30.0089 31.4512C31.431 31.4854 32.8683 31.5031 34.2968 31.4778C35.2499 31.4614 36.1917 31.316 37.1057 31.1693C38.2585 31.1024 39.4316 31.0429 40.5984 31.0214C40.7438 31.0189 40.8752 30.9342 40.941 30.804L41.0269 30.6296C41.0535 30.5765 41.0674 30.5171 41.0674 30.4577C41.0674 30.2428 41.0636 30.0291 41.0585 29.8155C41.3227 28.9357 41.2418 28.0293 41.1559 27.0825L41.1521 27.037C41.0699 26.1331 41.0269 25.2154 41.0042 24.2951C41.0257 24.0941 41.0484 23.8931 41.0699 23.6934C41.1394 23.079 41.2102 22.4432 41.2418 21.8149L41.2456 21.8162ZM36.0615 30.4652C34.5888 30.555 33.0655 30.646 31.5562 30.6726C31.0518 30.6814 30.5436 30.6839 30.0367 30.6839C29.2176 30.665 28.4035 30.6397 27.5982 30.6157C26.0269 30.5689 24.4291 30.5209 22.8237 30.512C23.4962 30.1884 24.1649 29.8951 24.8387 29.617C24.9411 29.5804 25.0422 29.5424 25.1446 29.5058C25.6085 29.3377 26.0484 29.1796 26.4631 29.0027C26.7386 28.8851 27.018 28.7688 27.2986 28.6512C27.3517 28.631 27.4036 28.6108 27.4567 28.5906C28.0698 28.3567 28.7031 28.1152 29.3351 27.865C30.1025 27.5603 30.8723 27.176 31.6169 26.8031C32.6989 26.2621 33.8177 25.7021 34.9112 25.405C34.9137 25.405 34.9162 25.4025 34.9175 25.4025C35.5912 25.6768 36.3864 26.0927 37.1499 26.5895C37.4065 26.7968 37.6416 26.999 37.8439 27.1722L37.8603 27.1861C38.7073 27.9143 39.5391 28.7524 40.0207 29.933C39.9954 29.976 39.9752 30.0215 39.9676 30.0708C39.0094 30.0898 38.0537 30.2428 37.1246 30.3907C37.0981 30.3944 37.0703 30.3995 37.0437 30.4033C36.715 30.4223 36.3876 30.4425 36.0628 30.4614L36.0615 30.4652ZM13.7777 30.9431C12.2671 30.9178 11.1761 30.8988 9.49991 30.6321C9.33178 30.6056 9.17503 30.5967 9.02713 30.5992C8.76925 30.6043 8.53413 30.6422 8.30532 30.6801C7.77819 30.7674 7.28012 30.8495 6.418 30.5322C6.09186 30.4121 5.44968 30.4513 4.64318 30.5158C4.43713 30.5322 4.25762 30.5461 4.1565 30.5487H4.15397C3.94286 30.5525 3.67613 30.4905 3.39423 30.4261C2.99098 30.3338 2.52832 30.2288 2.09093 30.2971C2.03657 29.9002 2.02267 29.4426 2.0252 28.9761C2.02646 28.9609 2.02899 28.9458 2.03152 28.9306C2.07703 28.4616 2.06944 27.98 2.05554 27.5059C2.06186 27.0875 2.05933 26.6957 2.02773 26.3531C2.02773 26.3455 2.02773 26.3366 2.02646 26.3291C2.01129 24.9765 1.96705 23.6137 1.92028 22.2826C1.93924 21.418 1.9759 20.5546 2.01129 19.7038C2.06438 18.4435 2.12001 17.1389 2.11621 15.8672C2.11242 14.545 2.0922 13.205 2.07323 11.9093C2.05301 10.5782 2.03278 9.2041 2.03025 7.86035C2.7192 7.71497 3.54972 7.74531 4.35496 7.77439C4.74052 7.78829 5.10458 7.80093 5.44969 7.79461C6.65944 7.77312 7.87679 7.76175 9.09286 7.75416C9.8703 7.80093 10.6642 7.84518 11.4289 7.87046C12.7234 7.91218 14.0381 7.87552 15.3098 7.84139C16.5929 7.80599 17.9202 7.76933 19.2146 7.81358C19.5812 7.82622 19.9529 7.84644 20.3119 7.86541C20.8706 7.89574 21.4458 7.92608 22.0311 7.92987C22.0387 8.42162 22.1335 8.98035 22.2333 9.53404C22.203 11.7538 22.1423 13.9749 22.0816 16.1416C22.0791 16.2515 22.0753 16.3628 22.0728 16.4728C22.0033 17.0201 21.9464 17.5561 21.9363 18.0327C21.9236 18.5977 21.9514 19.1223 21.9894 19.628C21.9426 21.5785 21.9085 23.5543 21.9085 25.5251C21.9085 26.6173 21.8655 27.6362 21.7808 28.5552C21.7681 28.6942 21.7467 28.8674 21.7252 29.0532C21.6759 29.4615 21.6379 29.7953 21.6253 30.0607C21.5975 30.2036 21.576 30.354 21.5634 30.5133C20.3018 30.5247 19.0377 30.5651 17.7824 30.6561C17.0732 30.7079 16.3641 30.7737 15.6789 30.8382C15.263 30.8773 14.8421 30.9165 14.4186 30.9532C14.1974 30.9494 13.985 30.9456 13.7802 30.9418L13.7777 30.9431ZM31.1239 3.38538L31.1517 3.37527C32.1023 3.02258 33.1502 2.6345 33.9504 2.15414C33.9593 2.17436 33.9669 2.19585 33.9757 2.21734C33.934 2.99351 34.0022 3.80507 34.0692 4.59388C34.1198 5.19433 34.1729 5.81501 34.1729 6.39271C34.1729 8.07778 34.1451 9.44428 34.0832 10.692C33.9517 13.3896 33.8227 16.9455 33.9997 20.5167C34.0313 21.1487 34.0465 21.8086 34.0629 22.4457C34.0794 23.1018 34.0958 23.7755 34.1287 24.4367C34.1249 24.4443 34.1223 24.4531 34.1198 24.4607C34.111 24.4809 34.1046 24.5011 34.0996 24.5214C33.3057 24.759 32.5485 25.0055 31.7888 25.5415C30.3692 26.544 28.6791 27.2493 27.0458 27.932C27.0382 27.9345 27.0319 27.9383 27.0243 27.9408C26.19 28.2594 25.3759 28.5716 24.5694 28.9041C23.8464 29.167 23.1208 29.4476 22.4697 29.8155C22.4697 29.8155 22.4685 29.8142 22.4672 29.813C22.4975 29.708 22.5291 29.6044 22.562 29.4995C22.6998 29.0583 22.8414 28.6019 22.8439 28.0116C22.8464 27.5224 22.8199 26.994 22.7933 26.4833C22.7453 25.5238 22.6947 24.5328 22.8199 23.6858C23.0044 22.4444 22.9109 21.4053 22.8123 20.3056C22.7921 20.073 22.7719 19.8366 22.7529 19.5964C22.7782 18.5623 22.806 17.5346 22.8338 16.5183C22.8667 16.2654 22.9021 16.0088 22.9362 15.756C23.0601 14.861 23.189 13.9369 23.189 13.1583C23.189 12.9042 23.1903 12.6501 23.1928 12.396C23.1966 11.8866 23.2004 11.3594 23.189 10.8386C23.1814 10.4733 23.0955 10.0018 23.0057 9.50243C23.0032 9.48853 23.0007 9.47336 22.9981 9.45819C23.0082 8.66938 23.0146 7.88184 23.0158 7.09556C23.3394 6.94766 23.6668 6.80861 23.9905 6.67082C24.3052 6.53682 24.6314 6.39903 24.9474 6.25492C26.3708 5.60896 27.7702 4.90358 29.124 4.22096L29.3667 4.09834C29.4009 4.08065 29.4388 4.06295 29.4755 4.04652C30.0241 3.83288 30.5752 3.61292 31.1226 3.38538H31.1239ZM38.926 4.87704C39.103 5.1286 39.2724 5.40165 39.4253 5.68354C39.5037 5.82892 39.5871 6.083 39.6668 6.32824C39.7944 6.71885 39.9183 7.09303 40.1003 7.35723C40.1142 7.44445 40.1269 7.53294 40.1357 7.62143C40.1357 7.63407 40.1383 7.64671 40.1408 7.65935C40.1509 8.41782 40.1143 9.17629 40.0637 9.92465C39.9916 10.2811 39.9385 10.6755 39.9613 11.1268C39.9626 11.1622 39.9651 11.1976 39.9676 11.2317C39.9575 11.3619 39.9474 11.4934 39.9385 11.6236C39.8589 12.7082 39.9727 13.8143 40.0826 14.8838C40.1598 15.641 40.2407 16.4247 40.2482 17.1756C40.2584 18.2008 40.2482 19.2437 40.2369 20.2525C40.223 21.5773 40.2103 22.9286 40.2432 24.2787C40.1635 25.0384 40.1029 25.812 40.1345 26.5844C40.1534 27.0483 40.1812 27.5148 40.2078 27.9661C40.2154 28.095 40.223 28.2252 40.2305 28.3554C40.1408 28.2063 40.0409 28.0609 39.9234 27.9218C39.3406 27.2405 38.5126 26.5718 37.6429 25.9991C36.9059 25.4012 36.021 24.7805 35.1374 24.5669C35.1235 24.5467 35.1083 24.5264 35.0907 24.5087C35.0464 24.4645 34.9921 24.4367 34.9364 24.419C35.1185 23.6959 35.0426 22.7187 34.9794 21.9084C34.9617 21.6898 34.9465 21.485 34.9377 21.3093C34.829 19.0768 34.8669 16.7799 34.9036 14.5589C34.9213 13.4414 34.9402 12.2847 34.9402 11.1521V6.57474C34.9402 6.23343 34.9579 5.85926 34.9781 5.46232C35.0287 4.41184 35.0856 3.24254 34.8113 2.28181C34.9503 2.49039 35.1602 2.72678 35.6039 2.85698L35.8896 2.93915C36.4976 3.1136 37.0462 3.27414 37.5392 3.54466C38.0601 3.94159 38.5316 4.38909 38.9272 4.87577L38.926 4.87704Z"
    fill="#5F1FC2" />
  <path
    d="M41.2456 21.8162C41.3657 19.3688 41.166 16.9228 40.9726 14.5576C40.8828 13.4642 40.7918 12.3353 40.7337 11.2242C40.7387 11.1508 40.745 11.0763 40.7501 11.0029C40.7754 10.6755 40.8007 10.3443 40.8234 10.0119C40.85 9.8842 40.879 9.75905 40.9081 9.63517C41.056 9.00184 41.209 8.3483 40.922 7.56075L40.965 7.43181C41.0206 7.26369 40.9587 7.08545 40.812 6.99569C40.6224 6.08174 40.1838 5.19812 39.5176 4.38024C39.2787 4.04399 38.9867 3.68624 38.6567 3.39423C38.4241 3.18692 38.1814 3.02132 37.9311 2.881C37.0778 2.24515 36.088 1.71296 35.0717 1.3451C34.9402 1.22122 34.7658 1.10366 34.5104 1.0177C34.5092 1.0177 34.5066 1.0177 34.5054 1.0177C34.4763 1.00885 34.4472 1.00253 34.4169 1C34.4106 1 34.403 1 34.3967 1C34.3726 1 34.3486 1.00126 34.3246 1.00506C34.317 1.00632 34.3082 1.00758 34.3006 1.01011C34.274 1.01643 34.2475 1.02528 34.2209 1.03792C34.2184 1.03792 34.2159 1.03919 34.2134 1.04045H34.2108L34.0376 1.1302C34.006 1.14664 33.977 1.16813 33.9504 1.19088C32.977 1.74709 31.9253 2.22872 30.8521 2.67495C30.2352 2.90376 29.6524 3.12118 29.1771 3.3462C28.9597 3.43089 28.7423 3.51432 28.5261 3.59902L28.2442 3.70773C27.5881 3.96182 26.9371 4.27153 26.3076 4.57112C25.9385 4.74683 25.5554 4.92887 25.1813 5.09573C24.9664 5.1918 24.7325 5.28282 24.4835 5.37889C23.7098 5.67975 22.8528 6.01221 22.2561 6.61393C22.0576 6.71127 21.8617 6.81113 21.6695 6.91985C18.9896 6.96536 16.2617 6.97041 13.6222 6.9742C12.1419 6.97673 10.6338 6.97926 9.12068 6.98937C9.02207 6.98305 8.926 6.978 8.82614 6.97168C6.39271 6.8263 3.87713 6.67461 1.50691 7.01592C1.39314 7.03235 1.29201 7.09809 1.23133 7.19669C1.17066 7.29529 1.15549 7.41412 1.19215 7.52157L1.25914 7.7213C1.25914 7.7529 1.25914 7.7845 1.25914 7.8161C1.17192 8.45701 1.20352 9.13837 1.23513 9.80203C1.25662 10.266 1.27811 10.7033 1.25914 11.1167C1.23133 11.7361 1.18835 12.3669 1.14664 12.9775C1.07458 14.033 1 15.1239 1 16.2149C1 18.0896 1.067 19.9807 1.13147 21.8086C1.13779 21.9717 1.14285 22.1385 1.14917 22.3029C1.12009 23.6605 1.13273 25.0283 1.25662 26.3784C1.25662 26.4454 1.25914 26.5124 1.25914 26.5794C1.26167 26.8132 1.26926 27.0521 1.27811 27.2936C1.28063 27.3707 1.28316 27.4491 1.28569 27.5262C1.28316 27.7095 1.27811 27.8978 1.27305 28.0912C1.26546 28.3769 1.25788 28.6651 1.25535 28.9496C1.23765 29.1013 1.21111 29.2555 1.18203 29.4186C1.08975 29.9381 0.984831 30.5272 1.19467 31.1112C1.23892 31.2351 1.34384 31.3261 1.47278 31.3514C1.50817 31.359 1.54357 31.359 1.58023 31.3564C1.64976 31.4626 1.76985 31.5284 1.90005 31.5258L2.07323 31.5233C2.12633 31.5233 2.17816 31.5107 2.22746 31.4879C2.96949 31.1491 4.39541 31.3286 5.53944 31.4727C6.03623 31.5359 6.50648 31.5954 6.89204 31.6105C7.51019 31.6358 8.13972 31.6851 8.74903 31.7319C9.74515 31.809 10.7754 31.8886 11.8082 31.8709H11.8221C12.6969 31.8545 13.5666 31.7951 14.4236 31.7218C14.6158 31.7256 14.813 31.7294 15.0203 31.7357C15.4514 31.7471 15.8799 31.7471 16.3072 31.7395C17.4107 31.7205 18.5029 31.6485 19.5686 31.5789C20.6229 31.5094 21.7138 31.4386 22.7946 31.4196C24.2395 31.3944 25.7172 31.4121 27.1457 31.4298C28.0849 31.4411 29.0457 31.4512 30.0089 31.4512C31.431 31.4854 32.8683 31.5031 34.2968 31.4778C35.2499 31.4614 36.1917 31.316 37.1057 31.1693C38.2585 31.1024 39.4316 31.0429 40.5984 31.0214C40.7438 31.0189 40.8752 30.9342 40.941 30.804L41.0269 30.6296C41.0535 30.5765 41.0674 30.5171 41.0674 30.4577C41.0674 30.2428 41.0636 30.0291 41.0585 29.8155C41.3227 28.9357 41.2418 28.0293 41.1559 27.0825L41.1521 27.037C41.0699 26.1331 41.0269 25.2154 41.0042 24.2951C41.0257 24.0941 41.0484 23.8931 41.0699 23.6934C41.1394 23.079 41.2102 22.4432 41.2418 21.8149L41.2456 21.8162ZM36.0615 30.4652C34.5888 30.555 33.0655 30.646 31.5562 30.6726C31.0518 30.6814 30.5436 30.6839 30.0367 30.6839C29.2176 30.665 28.4035 30.6397 27.5982 30.6157C26.0269 30.5689 24.4291 30.5209 22.8237 30.512C23.4962 30.1884 24.1649 29.8951 24.8387 29.617C24.9411 29.5804 25.0422 29.5424 25.1446 29.5058C25.6085 29.3377 26.0484 29.1796 26.4631 29.0027C26.7386 28.8851 27.018 28.7688 27.2986 28.6512C27.3517 28.631 27.4036 28.6108 27.4567 28.5906C28.0698 28.3567 28.7031 28.1152 29.3351 27.865C30.1025 27.5603 30.8723 27.176 31.6169 26.8031C32.6989 26.2621 33.8177 25.7021 34.9112 25.405C34.9137 25.405 34.9162 25.4025 34.9175 25.4025C35.5912 25.6768 36.3864 26.0927 37.1499 26.5895C37.4065 26.7968 37.6416 26.999 37.8439 27.1722L37.8603 27.1861C38.7073 27.9143 39.5391 28.7524 40.0207 29.933C39.9954 29.976 39.9752 30.0215 39.9676 30.0708C39.0094 30.0898 38.0537 30.2428 37.1246 30.3907C37.0981 30.3944 37.0703 30.3995 37.0437 30.4033C36.715 30.4223 36.3876 30.4425 36.0628 30.4614L36.0615 30.4652ZM13.7777 30.9431C12.2671 30.9178 11.1761 30.8988 9.49991 30.6321C9.33178 30.6056 9.17503 30.5967 9.02713 30.5992C8.76925 30.6043 8.53413 30.6422 8.30532 30.6801C7.77819 30.7674 7.28012 30.8495 6.418 30.5322C6.09186 30.4121 5.44968 30.4513 4.64318 30.5158C4.43713 30.5322 4.25762 30.5461 4.1565 30.5487H4.15397C3.94286 30.5525 3.67613 30.4905 3.39423 30.4261C2.99098 30.3338 2.52832 30.2288 2.09093 30.2971C2.03657 29.9002 2.02267 29.4426 2.0252 28.9761C2.02646 28.9609 2.02899 28.9458 2.03152 28.9306C2.07703 28.4616 2.06944 27.98 2.05554 27.5059C2.06186 27.0875 2.05933 26.6957 2.02773 26.3531C2.02773 26.3455 2.02773 26.3366 2.02646 26.3291C2.01129 24.9765 1.96705 23.6137 1.92028 22.2826C1.93924 21.418 1.9759 20.5546 2.01129 19.7038C2.06438 18.4435 2.12001 17.1389 2.11621 15.8672C2.11242 14.545 2.0922 13.205 2.07323 11.9093C2.05301 10.5782 2.03278 9.2041 2.03025 7.86035C2.7192 7.71497 3.54972 7.74531 4.35496 7.77439C4.74052 7.78829 5.10458 7.80093 5.44969 7.79461C6.65944 7.77312 7.87679 7.76175 9.09286 7.75416C9.8703 7.80093 10.6642 7.84518 11.4289 7.87046C12.7234 7.91218 14.0381 7.87552 15.3098 7.84139C16.5929 7.80599 17.9202 7.76933 19.2146 7.81358C19.5812 7.82622 19.9529 7.84644 20.3119 7.86541C20.8706 7.89574 21.4458 7.92608 22.0311 7.92987C22.0387 8.42162 22.1335 8.98035 22.2333 9.53404C22.203 11.7538 22.1423 13.9749 22.0816 16.1416C22.0791 16.2515 22.0753 16.3628 22.0728 16.4728C22.0033 17.0201 21.9464 17.5561 21.9363 18.0327C21.9236 18.5977 21.9514 19.1223 21.9894 19.628C21.9426 21.5785 21.9085 23.5543 21.9085 25.5251C21.9085 26.6173 21.8655 27.6362 21.7808 28.5552C21.7681 28.6942 21.7467 28.8674 21.7252 29.0532C21.6759 29.4615 21.6379 29.7953 21.6253 30.0607C21.5975 30.2036 21.576 30.354 21.5634 30.5133C20.3018 30.5247 19.0377 30.5651 17.7824 30.6561C17.0732 30.7079 16.3641 30.7737 15.6789 30.8382C15.263 30.8773 14.8421 30.9165 14.4186 30.9532C14.1974 30.9494 13.985 30.9456 13.7802 30.9418L13.7777 30.9431ZM31.1239 3.38538L31.1517 3.37527C32.1023 3.02258 33.1502 2.6345 33.9504 2.15414C33.9593 2.17436 33.9669 2.19585 33.9757 2.21734C33.934 2.99351 34.0022 3.80507 34.0692 4.59388C34.1198 5.19433 34.1729 5.81501 34.1729 6.39271C34.1729 8.07778 34.1451 9.44428 34.0832 10.692C33.9517 13.3896 33.8227 16.9455 33.9997 20.5167C34.0313 21.1487 34.0465 21.8086 34.0629 22.4457C34.0794 23.1018 34.0958 23.7755 34.1287 24.4367C34.1249 24.4443 34.1223 24.4531 34.1198 24.4607C34.111 24.4809 34.1046 24.5011 34.0996 24.5214C33.3057 24.759 32.5485 25.0055 31.7888 25.5415C30.3692 26.544 28.6791 27.2493 27.0458 27.932C27.0382 27.9345 27.0319 27.9383 27.0243 27.9408C26.19 28.2594 25.3759 28.5716 24.5694 28.9041C23.8464 29.167 23.1208 29.4476 22.4697 29.8155C22.4697 29.8155 22.4685 29.8142 22.4672 29.813C22.4975 29.708 22.5291 29.6044 22.562 29.4995C22.6998 29.0583 22.8414 28.6019 22.8439 28.0116C22.8464 27.5224 22.8199 26.994 22.7933 26.4833C22.7453 25.5238 22.6947 24.5328 22.8199 23.6858C23.0044 22.4444 22.9109 21.4053 22.8123 20.3056C22.7921 20.073 22.7719 19.8366 22.7529 19.5964C22.7782 18.5623 22.806 17.5346 22.8338 16.5183C22.8667 16.2654 22.9021 16.0088 22.9362 15.756C23.0601 14.861 23.189 13.9369 23.189 13.1583C23.189 12.9042 23.1903 12.6501 23.1928 12.396C23.1966 11.8866 23.2004 11.3594 23.189 10.8386C23.1814 10.4733 23.0955 10.0018 23.0057 9.50243C23.0032 9.48853 23.0007 9.47336 22.9981 9.45819C23.0082 8.66938 23.0146 7.88184 23.0158 7.09556C23.3394 6.94766 23.6668 6.80861 23.9905 6.67082C24.3052 6.53682 24.6314 6.39903 24.9474 6.25492C26.3708 5.60896 27.7702 4.90358 29.124 4.22096L29.3667 4.09834C29.4009 4.08065 29.4388 4.06295 29.4755 4.04652C30.0241 3.83288 30.5752 3.61292 31.1226 3.38538H31.1239ZM38.926 4.87704C39.103 5.1286 39.2724 5.40165 39.4253 5.68354C39.5037 5.82892 39.5871 6.083 39.6668 6.32824C39.7944 6.71885 39.9183 7.09303 40.1003 7.35723C40.1142 7.44445 40.1269 7.53294 40.1357 7.62143C40.1357 7.63407 40.1383 7.64671 40.1408 7.65935C40.1509 8.41782 40.1143 9.17629 40.0637 9.92465C39.9916 10.2811 39.9385 10.6755 39.9613 11.1268C39.9626 11.1622 39.9651 11.1976 39.9676 11.2317C39.9575 11.3619 39.9474 11.4934 39.9385 11.6236C39.8589 12.7082 39.9727 13.8143 40.0826 14.8838C40.1598 15.641 40.2407 16.4247 40.2482 17.1756C40.2584 18.2008 40.2482 19.2437 40.2369 20.2525C40.223 21.5773 40.2103 22.9286 40.2432 24.2787C40.1635 25.0384 40.1029 25.812 40.1345 26.5844C40.1534 27.0483 40.1812 27.5148 40.2078 27.9661C40.2154 28.095 40.223 28.2252 40.2305 28.3554C40.1408 28.2063 40.0409 28.0609 39.9234 27.9218C39.3406 27.2405 38.5126 26.5718 37.6429 25.9991C36.9059 25.4012 36.021 24.7805 35.1374 24.5669C35.1235 24.5467 35.1083 24.5264 35.0907 24.5087C35.0464 24.4645 34.9921 24.4367 34.9364 24.419C35.1185 23.6959 35.0426 22.7187 34.9794 21.9084C34.9617 21.6898 34.9465 21.485 34.9377 21.3093C34.829 19.0768 34.8669 16.7799 34.9036 14.5589C34.9213 13.4414 34.9402 12.2847 34.9402 11.1521V6.57474C34.9402 6.23343 34.9579 5.85926 34.9781 5.46232C35.0287 4.41184 35.0856 3.24254 34.8113 2.28181C34.9503 2.49039 35.1602 2.72678 35.6039 2.85698L35.8896 2.93915C36.4976 3.1136 37.0462 3.27414 37.5392 3.54466C38.0601 3.94159 38.5316 4.38909 38.9272 4.87577L38.926 4.87704Z"
    stroke="#5F1FC2" stroke-width="2" mask="url(#path-1-outside-1_467_437)" />
</svg>