<svg width="448" height="448" viewBox="0 0 448 448" fill="none" xmlns="http://www.w3.org/2000/svg">
  <rect width="448" height="448" rx="64" fill="#5F1FC2" />
  <g clip-path="url(#clip0_610_127)">
    <path
      d="M324.97 337.247C315.58 337.411 305.207 337.343 292.308 337.044C284.759 337.044 277.076 336.958 270.462 336.88C259.569 336.746 248.308 336.611 237.251 336.803C228.969 336.948 220.65 337.497 212.6 338.018C204.492 338.548 196.163 339.098 187.785 339.242C184.315 339.3 181.124 339.291 178.019 339.213C176.438 339.175 174.925 339.136 173.459 339.107H173.334C165.381 339.792 159.288 340.139 153.571 340.245C145.656 340.38 137.828 339.773 130.25 339.185C125.594 338.828 120.783 338.452 116.05 338.259C113.158 338.143 109.61 337.69 105.85 337.218C100.403 336.533 94.2624 335.753 88.9215 335.849C85.046 335.916 82.1056 336.427 79.9269 337.42C79.7052 337.517 79.4641 337.575 79.2231 337.584L77.9024 337.604C77.3143 337.613 76.7648 337.324 76.437 336.832L76.061 336.263L75.2223 336.331C75.097 336.331 74.9909 336.331 74.8945 336.302C74.2968 336.177 73.8148 335.772 73.6123 335.203C72.1181 331.038 72.8893 326.719 73.5641 322.902C73.757 321.803 73.9787 320.511 74.1329 319.248V319.123C74.1619 316.963 74.2197 314.775 74.2679 312.606C74.3065 311.131 74.345 309.685 74.3643 308.287L74.3065 306.455C74.2486 304.633 74.1811 302.821 74.1619 301.047L74.1426 299.514C73.3231 290.452 73.0628 280.618 73.3231 268.471L73.1882 264.634C72.6965 250.627 72.1855 236.253 72.1855 222.014C72.1855 213.742 72.7543 205.451 73.3038 197.43C73.622 192.755 73.9498 187.944 74.1715 183.182C74.3161 179.981 74.1522 176.616 73.9883 173.059C73.7569 168.094 73.5063 162.965 74.1619 158.116V157.046L73.6027 155.349C73.4388 154.858 73.4967 154.308 73.7859 153.865C74.0751 153.421 74.5282 153.113 75.0488 153.036C81.2862 152.139 87.9864 151.638 95.5253 151.512C107.181 151.31 119.096 152.023 130.626 152.718L132.873 152.852C144.692 152.775 156.347 152.756 167.28 152.737C187.39 152.708 208.175 152.669 228.671 152.322H228.969L229.23 152.168C230.522 151.445 231.919 150.712 233.645 149.874L233.828 149.787L233.973 149.642C238.35 145.236 244.828 142.72 250.545 140.503C252.444 139.761 254.247 139.067 255.915 138.324C258.807 137.042 261.718 135.654 264.533 134.314C269.354 132.019 274.28 129.677 279.216 127.758L286.331 125.001C290.119 123.198 294.882 121.444 299.085 119.882C308.793 115.842 316.342 112.227 322.888 108.477L323.013 108.41L323.109 108.313C323.225 108.207 323.36 108.111 323.514 108.034L324.787 107.378L324.873 107.34C324.98 107.291 325.095 107.243 325.23 107.214C325.423 107.176 325.51 107.176 325.597 107.166H325.76C325.895 107.166 326.03 107.205 326.156 107.243L326.291 107.282C327.785 107.802 329.019 108.525 330.041 109.489L330.214 109.653L330.436 109.73C338.081 112.497 345.514 116.498 351.944 121.289L352.002 121.338L352.069 121.376C354.046 122.475 355.791 123.709 357.401 125.146C359.522 127.035 361.671 129.503 363.792 132.482C368.825 138.662 372.064 145.208 373.471 151.994L373.568 152.476L373.982 152.737C374.648 153.151 374.917 153.942 374.667 154.713L374.214 156.082L374.349 156.458C376.421 162.136 375.293 166.957 374.204 171.613C373.982 172.567 373.761 173.541 373.548 174.524L373.529 174.601V174.679C373.346 177.214 373.163 179.73 372.97 182.227L372.835 183.991V184.068C373.298 192.774 374.021 201.672 374.667 209.519C376.132 227.518 377.655 246.134 376.74 264.721C376.508 269.474 375.968 274.294 375.438 278.96C375.264 280.503 375.091 282.036 374.937 283.568V283.723C375.12 291.551 375.496 298.415 376.065 304.71L376.094 305.047C376.74 312.191 377.357 318.939 375.399 325.447L375.342 325.63V325.813C375.39 327.423 375.409 329.052 375.409 330.682C375.409 330.952 375.342 331.221 375.226 331.463L374.57 332.793C374.272 333.4 373.674 333.776 373.009 333.786C363.725 333.95 354.316 334.441 346.324 334.914H346.208C338.669 336.129 331.872 337.141 324.96 337.266L324.97 337.247Z"
      fill="#E4FF03" />
    <path
      d="M377.926 264.751C378.841 246.086 377.318 227.432 375.843 209.395C375.159 201.056 374.465 192.447 374.021 183.973C374.06 183.413 374.108 182.845 374.146 182.285C374.339 179.789 374.532 177.263 374.706 174.727C374.908 173.754 375.13 172.799 375.352 171.854C376.479 167.025 377.646 162.04 375.458 156.034L375.785 155.051C376.21 153.769 375.737 152.409 374.619 151.725C373.173 144.755 369.828 138.016 364.747 131.779C362.925 129.214 360.698 126.486 358.182 124.259C356.408 122.678 354.557 121.415 352.648 120.345C346.141 115.496 338.592 111.437 330.841 108.632C329.839 107.687 328.508 106.791 326.561 106.135C326.551 106.135 326.532 106.135 326.522 106.135C326.3 106.067 326.079 106.019 325.847 106C325.799 106 325.741 106 325.693 106C325.51 106 325.327 106.01 325.144 106.039C325.086 106.048 325.018 106.058 324.96 106.077C324.758 106.125 324.556 106.193 324.353 106.289C324.334 106.289 324.315 106.299 324.295 106.308H324.276L322.955 106.993C322.714 107.118 322.492 107.282 322.29 107.456C314.867 111.698 306.846 115.371 298.661 118.774C293.957 120.519 289.512 122.177 285.887 123.893C284.229 124.539 282.571 125.175 280.923 125.821L278.773 126.65C273.769 128.588 268.804 130.95 264.003 133.234C261.188 134.575 258.267 135.963 255.414 137.235C253.775 137.968 251.991 138.662 250.092 139.395C244.192 141.689 237.656 144.225 233.106 148.814C231.592 149.556 230.098 150.317 228.632 151.147C208.194 151.494 187.39 151.532 167.261 151.561C155.972 151.58 144.47 151.6 132.931 151.677C132.179 151.629 131.446 151.59 130.685 151.542C112.127 150.433 92.9418 149.276 74.8659 151.879C73.9982 152.005 73.227 152.506 72.7642 153.258C72.3015 154.01 72.1858 154.916 72.4654 155.735L72.9763 157.259C72.9763 157.5 72.9763 157.741 72.9763 157.982C72.3111 162.869 72.5521 168.066 72.7931 173.127C72.957 176.665 73.1209 180.001 72.9763 183.153C72.7642 187.877 72.4364 192.688 72.1183 197.344C71.5688 205.394 71 213.714 71 222.033C71 236.33 71.5109 250.753 72.0026 264.693C72.0508 265.936 72.0894 267.209 72.1376 268.462C71.9159 278.816 72.0123 289.247 72.957 299.543C72.957 300.054 72.9763 300.565 72.9763 301.076C72.9956 302.86 73.0534 304.682 73.1209 306.523C73.1402 307.111 73.1595 307.709 73.1788 308.297C73.1595 309.695 73.1209 311.131 73.0824 312.606C73.0245 314.785 72.9667 316.983 72.9474 319.152C72.8124 320.309 72.61 321.485 72.3882 322.729C71.6845 326.691 70.8843 331.183 72.4846 335.637C72.8221 336.582 73.6222 337.276 74.6056 337.469C74.8755 337.527 75.1454 337.527 75.425 337.508C75.9552 338.317 76.8711 338.819 77.8641 338.799L79.1848 338.78C79.5897 338.78 79.985 338.684 80.361 338.51C86.0199 335.927 96.8945 337.296 105.619 338.395C109.408 338.877 112.994 339.33 115.935 339.445C120.649 339.638 125.45 340.014 130.096 340.371C137.693 340.959 145.55 341.566 153.427 341.431H153.533C160.204 341.306 166.837 340.853 173.373 340.294C174.838 340.323 176.342 340.352 177.923 340.4C181.211 340.487 184.479 340.487 187.737 340.429C196.153 340.284 204.483 339.735 212.61 339.204C220.65 338.674 228.97 338.134 237.212 337.99C248.231 337.797 259.501 337.932 270.395 338.067C277.558 338.154 284.885 338.231 292.231 338.231C303.076 338.491 314.038 338.626 324.932 338.433C332.201 338.308 339.383 337.199 346.353 336.081C355.145 335.57 364.091 335.117 372.99 334.953C374.098 334.934 375.101 334.288 375.602 333.295L376.258 331.964C376.46 331.559 376.566 331.106 376.566 330.653C376.566 329.014 376.537 327.385 376.499 325.756C378.514 319.046 377.897 312.134 377.241 304.913L377.212 304.566C376.586 297.673 376.258 290.674 376.084 283.656C376.248 282.123 376.422 280.59 376.585 279.067C377.116 274.381 377.656 269.532 377.897 264.741L377.926 264.751ZM338.39 330.711C327.159 331.395 315.542 332.09 304.031 332.292C300.184 332.36 296.309 332.379 292.443 332.379C286.196 332.234 279.987 332.041 273.846 331.858C261.863 331.502 249.678 331.135 237.434 331.068C242.563 328.6 247.663 326.363 252.801 324.242C253.582 323.963 254.353 323.673 255.134 323.394C258.672 322.112 262.027 320.907 265.189 319.557C267.291 318.66 269.421 317.773 271.562 316.877C271.966 316.723 272.362 316.568 272.767 316.414C277.442 314.631 282.272 312.789 287.092 310.88C292.944 308.557 298.815 305.626 304.494 302.782C312.746 298.656 321.278 294.386 329.617 292.12C329.636 292.12 329.655 292.101 329.665 292.101C334.803 294.193 340.867 297.364 346.69 301.153C348.647 302.734 350.44 304.277 351.983 305.597L352.108 305.703C358.567 311.256 364.911 317.648 368.584 326.652C368.391 326.98 368.237 327.327 368.179 327.703C360.871 327.848 353.583 329.014 346.497 330.142C346.295 330.171 346.083 330.21 345.88 330.239C343.374 330.383 340.877 330.537 338.399 330.682L338.39 330.711ZM168.446 334.355C156.926 334.162 148.606 334.018 135.823 331.984C134.541 331.781 133.345 331.714 132.217 331.733C130.251 331.771 128.458 332.061 126.713 332.35C122.693 333.015 118.894 333.642 112.319 331.222C109.832 330.306 104.935 330.605 98.784 331.097C97.2126 331.222 95.8436 331.328 95.0724 331.347H95.0531C93.4432 331.376 91.409 330.904 89.2592 330.412C86.1838 329.708 82.6554 328.908 79.3198 329.429C78.9052 326.402 78.7992 322.912 78.8185 319.354C78.8281 319.239 78.8474 319.123 78.8667 319.007C79.2137 315.431 79.1559 311.758 79.0498 308.143C79.098 304.952 79.0788 301.963 78.8378 299.35C78.8378 299.293 78.8378 299.225 78.8281 299.167C78.7124 288.852 78.375 278.459 78.0183 268.308C78.1629 261.714 78.4425 255.129 78.7124 248.641C79.1173 239.03 79.5415 229.081 79.5126 219.382C79.4837 209.298 79.3294 199.079 79.1848 189.198C79.0306 179.046 78.8763 168.567 78.857 158.319C84.1111 157.21 90.445 157.442 96.586 157.664C99.5263 157.77 102.303 157.866 104.935 157.818C114.161 157.654 123.444 157.567 132.719 157.509C138.648 157.866 144.702 158.203 150.534 158.396C160.406 158.714 170.432 158.435 180.131 158.175C189.916 157.905 200.038 157.625 209.91 157.962C212.706 158.059 215.54 158.213 218.278 158.358C222.539 158.589 226.926 158.82 231.389 158.849C231.447 162.6 232.17 166.861 232.932 171.083C232.701 188.012 232.238 204.95 231.775 221.474C231.756 222.313 231.727 223.161 231.708 224C231.177 228.174 230.744 232.262 230.666 235.896C230.57 240.206 230.782 244.207 231.071 248.063C230.715 262.938 230.454 278.006 230.454 293.036C230.454 301.365 230.127 309.136 229.481 316.144C229.384 317.205 229.22 318.525 229.056 319.943C228.68 323.056 228.391 325.602 228.295 327.626C228.083 328.715 227.919 329.863 227.822 331.077C218.201 331.164 208.561 331.473 198.988 332.167C193.579 332.562 188.171 333.063 182.946 333.555C179.774 333.854 176.564 334.153 173.334 334.432C171.647 334.403 170.028 334.374 168.466 334.346L168.446 334.355ZM300.734 124.192L300.946 124.115C308.196 121.425 316.188 118.465 322.29 114.802C322.358 114.956 322.415 115.12 322.483 115.284C322.165 121.203 322.685 127.392 323.196 133.408C323.582 137.987 323.987 142.721 323.987 147.126C323.987 159.977 323.775 170.399 323.302 179.914C322.3 200.487 321.316 227.606 322.666 254.84C322.907 259.66 323.023 264.693 323.148 269.552C323.273 274.555 323.399 279.693 323.649 284.735C323.62 284.793 323.601 284.861 323.582 284.919C323.514 285.073 323.466 285.227 323.428 285.381C317.373 287.194 311.599 289.074 305.805 293.161C294.978 300.806 282.089 306.186 269.633 311.391C269.576 311.411 269.527 311.44 269.47 311.459C263.107 313.888 256.898 316.27 250.748 318.805C245.233 320.81 239.7 322.95 234.735 325.756C234.735 325.756 234.725 325.746 234.715 325.737C234.947 324.936 235.188 324.146 235.439 323.346C236.489 319.981 237.569 316.501 237.588 311.999C237.608 308.268 237.405 304.238 237.203 300.343C236.836 293.026 236.451 285.468 237.405 279.009C238.813 269.542 238.099 261.617 237.347 253.23C237.193 251.456 237.039 249.653 236.894 247.822C237.087 239.936 237.299 232.098 237.511 224.347C237.762 222.419 238.032 220.462 238.292 218.534C239.237 211.708 240.22 204.661 240.22 198.723C240.22 196.785 240.23 194.847 240.249 192.909C240.278 189.024 240.307 185.004 240.22 181.032C240.162 178.246 239.507 174.65 238.822 170.842C238.803 170.736 238.784 170.62 238.764 170.505C238.842 164.489 238.89 158.483 238.899 152.487C241.367 151.359 243.864 150.298 246.332 149.247C248.733 148.226 251.22 147.175 253.63 146.076C264.485 141.149 275.158 135.77 285.482 130.564L287.333 129.629C287.594 129.494 287.883 129.359 288.163 129.234C292.347 127.604 296.55 125.927 300.724 124.192H300.734ZM360.235 135.567C361.585 137.486 362.877 139.568 364.043 141.718C364.641 142.827 365.277 144.765 365.885 146.635C366.858 149.614 367.803 152.467 369.191 154.482C369.297 155.147 369.394 155.822 369.461 156.497C369.461 156.593 369.48 156.69 369.5 156.786C369.577 162.571 369.297 168.355 368.912 174.062C368.362 176.781 367.957 179.789 368.131 183.23C368.14 183.5 368.16 183.77 368.179 184.03C368.102 185.023 368.025 186.026 367.957 187.019C367.35 195.291 368.218 203.726 369.056 211.882C369.644 217.657 370.261 223.634 370.319 229.36C370.396 237.179 370.319 245.132 370.232 252.825C370.126 262.928 370.03 273.234 370.281 283.53C369.673 289.324 369.211 295.224 369.452 301.115C369.596 304.653 369.808 308.21 370.011 311.652C370.068 312.635 370.126 313.628 370.184 314.621C369.5 313.483 368.738 312.375 367.842 311.314C363.397 306.118 357.083 301.018 350.45 296.651C344.83 292.091 338.081 287.358 331.342 285.728C331.236 285.574 331.121 285.42 330.986 285.285C330.648 284.947 330.234 284.735 329.81 284.6C331.198 279.086 330.619 271.634 330.137 265.454C330.002 263.786 329.887 262.225 329.819 260.885C328.99 243.86 329.279 226.343 329.559 209.404C329.694 200.882 329.839 192.061 329.839 183.423V148.515C329.839 145.912 329.974 143.058 330.128 140.031C330.513 132.02 330.947 123.102 328.855 115.775C329.916 117.366 331.516 119.169 334.9 120.162L337.079 120.789C341.716 122.119 345.9 123.343 349.66 125.406C353.631 128.434 357.227 131.846 360.245 135.558L360.235 135.567Z"
      fill="#5F1FC2" />
    <path
      d="M311.872 227.997C318.505 196.497 310.188 168.078 293.297 164.522C276.406 160.965 257.337 183.618 250.704 215.118C244.072 246.618 252.388 275.037 269.279 278.594C286.17 282.15 305.24 259.497 311.872 227.997Z"
      fill="#5F1FC2" />
    <path
      d="M292.553 223.929C294.996 212.326 291.933 201.858 285.712 200.548C279.491 199.239 272.468 207.583 270.025 219.186C267.582 230.788 270.645 241.256 276.865 242.566C283.086 243.876 290.11 235.532 292.553 223.929Z"
      fill="#E4FF03" />
    <path d="M139.91 175.335H171.724V311.074H139.91V175.335Z" fill="#5F1FC2" />
  </g>
  <defs>
    <clipPath id="clip0_610_127">
      <rect width="307" height="305" fill="white" transform="translate(71 71)" />
    </clipPath>
  </defs>
</svg>