<svg width="307" height="305" viewBox="0 0 307 305" fill="none" xmlns="http://www.w3.org/2000/svg">
<g clip-path="url(#clip0_552_265)">
<path d="M253.97 266.247C244.58 266.411 234.207 266.343 221.308 266.044C213.759 266.044 206.076 265.958 199.462 265.88C188.569 265.746 177.308 265.611 166.251 265.803C157.969 265.948 149.65 266.497 141.6 267.018C133.492 267.548 125.163 268.098 116.785 268.242C113.315 268.3 110.124 268.291 107.019 268.213C105.438 268.175 103.925 268.136 102.459 268.107H102.334C94.3805 268.792 88.2877 269.139 82.5709 269.245C74.656 269.38 66.8279 268.773 59.2505 268.185C54.5941 267.828 49.7834 267.452 45.0499 267.259C42.1578 267.143 38.6101 266.69 34.8503 266.218C29.4034 265.533 23.2624 264.753 17.9215 264.849C14.046 264.916 11.1057 265.427 8.92689 266.42C8.70516 266.517 8.46414 266.575 8.22313 266.584L6.90238 266.604C6.31431 266.613 5.76479 266.324 5.43702 265.832L5.06104 265.263L4.22232 265.331C4.09699 265.331 3.99094 265.331 3.89453 265.302C3.29682 265.177 2.81479 264.772 2.61234 264.203C1.11806 260.038 1.88931 255.719 2.56414 251.902C2.75695 250.803 2.97868 249.511 3.13293 248.248V248.123C3.16185 245.963 3.21969 243.775 3.2679 241.606C3.30646 240.131 3.34503 238.685 3.36431 237.287L3.30646 235.455C3.24862 233.633 3.18113 231.821 3.16185 230.047L3.14257 228.514C2.32313 219.452 2.06284 209.618 2.32313 197.471L2.18816 193.634C1.6965 179.627 1.18555 165.253 1.18555 151.014C1.18555 142.742 1.75433 134.451 2.30384 126.43C2.62198 121.755 2.94976 116.944 3.17149 112.182C3.3161 108.981 3.15221 105.616 2.98832 102.059C2.75695 97.0941 2.50629 91.9654 3.16185 87.1162V86.0461L2.60271 84.3494C2.43882 83.8577 2.49666 83.3082 2.78587 82.8647C3.07509 82.4213 3.5282 82.1128 4.04879 82.0356C10.2862 81.1391 16.9864 80.6378 24.5253 80.5124C36.1807 80.31 48.0964 81.0234 59.6264 81.7175L61.8727 81.8525C73.692 81.7753 85.3474 81.7561 96.2797 81.7368C116.39 81.7079 137.175 81.6693 157.671 81.3222H157.969L158.23 81.168C159.522 80.445 160.919 79.7123 162.645 78.8735L162.828 78.7868L162.973 78.6422C167.35 74.2365 173.828 71.7203 179.545 69.503C181.444 68.7606 183.247 68.0665 184.915 67.3242C187.807 66.042 190.718 64.6538 193.533 63.3137C198.354 61.0193 203.28 58.6766 208.216 56.7582L215.331 54.001C219.119 52.1982 223.882 50.4436 228.085 48.8819C237.793 44.8425 245.342 41.2273 251.888 37.4771L252.013 37.4096L252.109 37.3132C252.225 37.2072 252.36 37.1108 252.514 37.0337L253.787 36.3781L253.873 36.3395C253.98 36.2913 254.095 36.2431 254.23 36.2142C254.423 36.1757 254.51 36.1757 254.597 36.166H254.76C254.895 36.166 255.03 36.2046 255.156 36.2431L255.291 36.2817C256.785 36.8023 258.019 37.5253 259.041 38.4894L259.214 38.6533L259.436 38.7304C267.081 41.4972 274.514 45.498 280.944 50.2894L281.002 50.3376L281.069 50.3762C283.046 51.4752 284.791 52.7092 286.401 54.1456C288.522 56.0351 290.671 58.5031 292.792 61.482C297.825 67.6616 301.064 74.2075 302.471 80.9945L302.568 81.4765L302.982 81.7368C303.648 82.1513 303.917 82.9419 303.667 83.7131L303.214 85.0821L303.349 85.458C305.421 91.1363 304.293 95.9566 303.204 100.613C302.982 101.567 302.761 102.541 302.548 103.524L302.529 103.601V103.679C302.346 106.214 302.163 108.73 301.97 111.227L301.835 112.991V113.068C302.298 121.774 303.021 130.672 303.667 138.519C305.132 156.518 306.655 175.134 305.74 193.721C305.508 198.474 304.968 203.294 304.438 207.96C304.265 209.503 304.091 211.036 303.937 212.568V212.723C304.12 220.551 304.496 227.415 305.065 233.71L305.094 234.047C305.74 241.191 306.357 247.939 304.399 254.447L304.342 254.63V254.813C304.39 256.423 304.409 258.052 304.409 259.682C304.409 259.952 304.342 260.222 304.226 260.463L303.57 261.793C303.272 262.4 302.674 262.776 302.009 262.786C292.725 262.95 283.316 263.441 275.324 263.914H275.208C267.669 265.129 260.872 266.141 253.96 266.266L253.97 266.247Z" fill="#E4FF03"/>
<path d="M306.926 193.751C307.841 175.086 306.318 156.432 304.843 138.395C304.159 130.056 303.465 121.447 303.021 112.973C303.06 112.413 303.108 111.845 303.146 111.285C303.339 108.789 303.532 106.263 303.706 103.727C303.908 102.754 304.13 101.799 304.352 100.854C305.479 96.0245 306.646 91.0404 304.458 85.0343L304.785 84.051C305.21 82.7688 304.737 81.4095 303.619 80.725C302.173 73.7549 298.828 67.0162 293.747 60.7788C291.925 58.2144 289.698 55.4861 287.182 53.2592C285.408 51.6781 283.557 50.4152 281.648 49.3451C275.141 44.4959 267.592 40.4373 259.841 37.6319C258.839 36.6871 257.508 35.7905 255.561 35.135C255.551 35.135 255.532 35.135 255.522 35.135C255.3 35.0675 255.079 35.0193 254.847 35C254.799 35 254.741 35 254.693 35C254.51 35 254.327 35.0096 254.144 35.0386C254.086 35.0482 254.018 35.0578 253.96 35.0771C253.758 35.1253 253.556 35.1928 253.353 35.2892C253.334 35.2892 253.315 35.2989 253.295 35.3085H253.276L251.955 35.993C251.714 36.1183 251.492 36.2822 251.29 36.4557C243.867 40.6976 235.846 44.3706 227.661 47.7737C222.957 49.5186 218.512 51.1768 214.887 52.8928C213.229 53.5387 211.571 54.175 209.923 54.8209L207.773 55.65C202.769 57.5878 197.804 59.9497 193.003 62.2345C190.188 63.5745 187.267 64.9628 184.414 66.2353C182.775 66.968 180.991 67.6621 179.092 68.3948C173.192 70.6892 166.656 73.2247 162.106 77.8136C160.592 78.5559 159.098 79.3175 157.632 80.1466C137.194 80.4936 116.39 80.5322 96.2607 80.5611C84.9716 80.5804 73.4705 80.5997 61.9308 80.6768C61.1788 80.6286 60.4461 80.59 59.6845 80.5418C41.1265 79.4332 21.9418 78.2763 3.86585 80.8793C2.99821 81.0046 2.22696 81.5059 1.76422 82.2579C1.30147 83.0098 1.18579 83.916 1.46536 84.7355L1.97631 86.2587C1.97631 86.4997 1.97631 86.7407 1.97631 86.9817C1.31111 91.8695 1.55213 97.0657 1.79314 102.127C1.95703 105.665 2.12092 109.001 1.97631 112.153C1.76422 116.877 1.43644 121.688 1.1183 126.344C0.568795 134.394 0 142.714 0 151.033C0 165.33 0.510949 179.753 1.00262 193.693C1.05082 194.936 1.08938 196.209 1.13758 197.462C0.915851 207.816 1.01225 218.247 1.95703 228.543C1.95703 229.054 1.97631 229.565 1.97631 230.076C1.99559 231.86 2.05344 233.682 2.12092 235.523C2.1402 236.111 2.15948 236.709 2.17876 237.297C2.15948 238.695 2.12092 240.131 2.08236 241.606C2.02451 243.785 1.96667 245.983 1.94739 248.152C1.81242 249.309 1.60997 250.485 1.38824 251.729C0.68448 255.691 -0.115685 260.183 1.48464 264.637C1.82206 265.582 2.62223 266.276 3.60556 266.469C3.8755 266.527 4.14543 266.527 4.42501 266.508C4.95524 267.317 5.87109 267.819 6.86406 267.799L8.18482 267.78C8.58972 267.78 8.98497 267.684 9.36095 267.51C15.0199 264.927 25.8945 266.296 34.6191 267.395C38.4079 267.877 41.9941 268.33 44.9345 268.445C49.6487 268.638 54.4497 269.014 59.0965 269.371C66.6932 269.959 74.5502 270.566 82.4265 270.431H82.5326C89.2038 270.306 95.8365 269.853 102.373 269.294C103.838 269.323 105.342 269.352 106.923 269.4C110.211 269.487 113.479 269.487 116.737 269.429C125.153 269.284 133.483 268.735 141.61 268.204C149.65 267.674 157.97 267.134 166.212 266.99C177.231 266.797 188.501 266.932 199.395 267.067C206.558 267.154 213.885 267.231 221.231 267.231C232.076 267.491 243.038 267.626 253.932 267.433C261.201 267.308 268.383 266.199 275.353 265.081C284.145 264.57 293.091 264.117 301.99 263.953C303.098 263.934 304.101 263.288 304.602 262.295L305.258 260.964C305.46 260.559 305.566 260.106 305.566 259.653C305.566 258.014 305.537 256.385 305.499 254.756C307.514 248.046 306.897 241.134 306.241 233.913L306.212 233.566C305.586 226.673 305.258 219.674 305.084 212.656C305.248 211.123 305.422 209.59 305.585 208.067C306.116 203.381 306.656 198.532 306.897 193.741L306.926 193.751ZM267.39 259.711C256.159 260.395 244.542 261.09 233.031 261.292C229.184 261.36 225.309 261.379 221.443 261.379C215.196 261.234 208.987 261.041 202.846 260.858C190.863 260.502 178.678 260.135 166.434 260.068C171.563 257.6 176.663 255.363 181.801 253.242C182.582 252.963 183.353 252.673 184.134 252.394C187.672 251.112 191.027 249.907 194.189 248.557C196.291 247.66 198.421 246.773 200.562 245.877C200.966 245.723 201.362 245.568 201.767 245.414C206.442 243.631 211.272 241.789 216.092 239.88C221.944 237.557 227.815 234.626 233.494 231.782C241.746 227.656 250.278 223.386 258.617 221.12C258.636 221.12 258.655 221.101 258.665 221.101C263.803 223.193 269.867 226.364 275.69 230.153C277.647 231.734 279.44 233.277 280.983 234.597L281.108 234.703C287.567 240.256 293.911 246.648 297.584 255.652C297.391 255.98 297.237 256.327 297.179 256.703C289.871 256.848 282.583 258.014 275.497 259.142C275.295 259.171 275.083 259.21 274.88 259.239C272.374 259.383 269.877 259.537 267.399 259.682L267.39 259.711ZM97.4465 263.355C85.926 263.162 77.6063 263.018 64.8229 260.984C63.5407 260.781 62.3453 260.714 61.2174 260.733C59.2507 260.771 57.4576 261.061 55.7126 261.35C51.6925 262.015 47.8942 262.642 41.3193 260.222C38.8321 259.306 33.9347 259.605 27.784 260.097C26.2126 260.222 24.8436 260.328 24.0724 260.347H24.0531C22.4432 260.376 20.409 259.904 18.2592 259.412C15.1838 258.708 11.6554 257.908 8.31978 258.429C7.90524 255.402 7.79919 251.912 7.81847 248.354C7.82811 248.239 7.84739 248.123 7.86668 248.007C8.21373 244.431 8.15589 240.758 8.04984 237.143C8.09804 233.952 8.07877 230.963 7.83776 228.35C7.83776 228.293 7.83775 228.225 7.82811 228.167C7.71243 217.852 7.375 207.459 7.0183 197.308C7.16291 190.714 7.44249 184.129 7.71242 177.641C8.11733 168.03 8.54151 158.081 8.51259 148.382C8.48367 138.298 8.32942 128.079 8.18482 118.198C8.03057 108.046 7.87631 97.567 7.85703 87.3191C13.1111 86.2105 19.4449 86.4418 25.586 86.6636C28.5263 86.7696 31.3028 86.866 33.9347 86.8178C43.1607 86.6539 52.4445 86.5672 61.7187 86.5093C67.6476 86.866 73.7018 87.2034 79.5344 87.3963C89.4063 87.7144 99.4324 87.4348 109.131 87.1745C118.916 86.9046 129.038 86.625 138.91 86.9624C141.706 87.0588 144.54 87.2131 147.278 87.3577C151.539 87.5891 155.926 87.8204 160.389 87.8494C160.447 91.5995 161.17 95.8606 161.932 100.083C161.701 117.012 161.238 133.95 160.775 150.474C160.756 151.313 160.727 152.161 160.708 153C160.177 157.174 159.744 161.262 159.666 164.896C159.57 169.206 159.782 173.207 160.071 177.063C159.715 191.938 159.454 207.006 159.454 222.036C159.454 230.365 159.127 238.136 158.481 245.144C158.384 246.205 158.22 247.525 158.056 248.943C157.681 252.056 157.391 254.602 157.295 256.626C157.083 257.715 156.919 258.863 156.822 260.077C147.201 260.164 137.561 260.473 127.988 261.167C122.579 261.562 117.171 262.063 111.946 262.555C108.774 262.854 105.564 263.153 102.334 263.432C100.647 263.403 99.0275 263.374 97.4658 263.346L97.4465 263.355ZM229.734 53.1917L229.946 53.1145C237.196 50.4248 245.188 47.4652 251.29 43.8018C251.358 43.956 251.415 44.1199 251.483 44.2838C251.165 50.2031 251.685 56.3923 252.196 62.408C252.582 66.9873 252.987 71.7208 252.987 76.1265C252.987 88.9773 252.775 99.3987 252.302 108.914C251.3 129.487 250.316 156.606 251.666 183.84C251.907 188.66 252.023 193.693 252.148 198.552C252.273 203.555 252.399 208.693 252.649 213.735C252.62 213.793 252.601 213.861 252.582 213.919C252.514 214.073 252.466 214.227 252.428 214.381C246.373 216.194 240.599 218.074 234.805 222.161C223.978 229.806 211.089 235.186 198.633 240.391C198.576 240.411 198.527 240.44 198.47 240.459C192.107 242.888 185.898 245.27 179.748 247.805C174.233 249.81 168.7 251.95 163.735 254.756C163.735 254.756 163.725 254.746 163.715 254.737C163.947 253.936 164.188 253.146 164.439 252.346C165.489 248.981 166.569 245.501 166.588 240.999C166.608 237.268 166.405 233.238 166.203 229.343C165.836 222.026 165.451 214.468 166.405 208.009C167.813 198.542 167.099 190.617 166.347 182.23C166.193 180.456 166.039 178.653 165.894 176.822C166.087 168.936 166.299 161.098 166.511 153.347C166.762 151.419 167.032 149.462 167.292 147.534C168.237 140.708 169.22 133.661 169.22 127.723C169.22 125.785 169.23 123.847 169.249 121.909C169.278 118.024 169.307 114.004 169.22 110.032C169.162 107.246 168.507 103.65 167.822 99.8422C167.803 99.7361 167.784 99.6205 167.765 99.5048C167.842 93.4891 167.89 87.483 167.899 81.4866C170.367 80.3587 172.864 79.2982 175.332 78.2474C177.733 77.2255 180.22 76.1747 182.63 75.0757C193.485 70.1494 204.157 64.7699 214.483 59.5641L216.333 58.6289C216.594 58.494 216.883 58.359 217.163 58.2337C221.347 56.6044 225.55 54.927 229.724 53.1917H229.734ZM289.235 64.5675C290.585 66.486 291.877 68.5683 293.043 70.7181C293.641 71.8268 294.277 73.7646 294.885 75.6348C295.858 78.6137 296.803 81.4673 298.191 83.4822C298.297 84.1474 298.394 84.8222 298.461 85.4971C298.461 85.5935 298.48 85.6899 298.5 85.7863C298.577 91.5706 298.297 97.3549 297.912 103.062C297.362 105.781 296.957 108.789 297.131 112.23C297.14 112.5 297.16 112.77 297.179 113.03C297.102 114.023 297.025 115.026 296.957 116.019C296.35 124.291 297.218 132.726 298.056 140.882C298.644 146.657 299.261 152.634 299.319 158.36C299.396 166.179 299.319 174.132 299.232 181.825C299.126 191.928 299.03 202.234 299.281 212.53C298.673 218.324 298.211 224.224 298.452 230.115C298.596 233.653 298.808 237.21 299.011 240.652C299.068 241.635 299.126 242.628 299.184 243.621C298.5 242.483 297.738 241.375 296.842 240.314C292.397 235.118 286.083 230.018 279.45 225.651C273.83 221.091 267.081 216.358 260.342 214.728C260.236 214.574 260.121 214.42 259.986 214.285C259.648 213.947 259.234 213.735 258.81 213.6C260.198 208.086 259.619 200.634 259.137 194.454C259.002 192.786 258.887 191.225 258.819 189.885C257.99 172.86 258.279 155.343 258.559 138.404C258.694 129.882 258.839 121.061 258.839 112.423V77.5147C258.839 74.9118 258.974 72.0582 259.128 69.0311C259.513 61.0198 259.947 52.1023 257.855 44.7755C258.916 46.3662 260.516 48.169 263.9 49.1619L266.079 49.7886C270.716 51.119 274.9 52.3433 278.66 54.4064C282.631 57.4335 286.227 60.8463 289.245 64.5579L289.235 64.5675Z" fill="#5F1FC2"/>
<path d="M240.872 156.997C247.505 125.497 239.188 97.0781 222.297 93.5217C205.406 89.9652 186.337 112.618 179.704 144.118C173.072 175.618 181.388 204.037 198.279 207.594C215.17 211.15 234.24 188.497 240.872 156.997Z" fill="#5F1FC2"/>
<path d="M221.553 152.929C223.996 141.326 220.933 130.858 214.712 129.548C208.491 128.239 201.468 136.583 199.025 148.186C196.582 159.788 199.645 170.256 205.865 171.566C212.086 172.876 219.11 164.532 221.553 152.929Z" fill="#E4FF03"/>
<path d="M68.9102 104.335H100.724V240.074H68.9102V104.335Z" fill="#5F1FC2"/>
</g>
<defs>
<clipPath id="clip0_552_265">
<rect width="307" height="305" fill="white"/>
</clipPath>
</defs>
</svg>
